<?xml version="1.0" standalone="no"?>
<!DOCTYPE svg PUBLIC "-//W3C//DTD SVG 1.1//EN" "http://www.w3.org/Graphics/SVG/1.1/DTD/svg11.dtd" >
<!--
2013-9-30: Created.
-->
<svg>
<metadata>
Created by iconfont
</metadata>
<defs>

<font id="iconfont" horiz-adv-x="1024" >
  <font-face
    font-family="iconfont"
    font-weight="500"
    font-stretch="normal"
    units-per-em="1024"
    ascent="896"
    descent="-128"
  />
    <missing-glyph />
    
    <glyph glyph-name="yunpanlogo-" unicode="&#59091;" d="M902.095238 581.485714V42.666667a97.52381 97.52381 0 0 0-97.523809-97.52381H219.428571a97.52381 97.52381 0 0 0-97.523809 97.52381V725.333333a97.52381 97.52381 0 0 0 97.523809 97.52381h441.295239zM660.72381 630.247619V822.857143l241.371428-241.371429h-192.609524a48.761905 48.761905 0 0 0-48.761904 48.761905zM365.81181 419.425524l37.741714 37.766095 254.805333-254.805333-37.741714-37.766096zM365.763048 202.118095l96.719238 96.719238 37.766095-37.741714-96.719238-96.719238zM523.751619 360.228571l96.889905 96.865524 37.766095-37.741714-96.889905-96.889905z"  horiz-adv-x="1024" />

    
    <glyph glyph-name="yunpanlogo-1" unicode="&#59092;" d="M902.095238 581.485714V42.666667a97.52381 97.52381 0 0 0-97.523809-97.52381H219.428571a97.52381 97.52381 0 0 0-97.523809 97.52381V725.333333a97.52381 97.52381 0 0 0 97.523809 97.52381h441.295239zM660.72381 630.247619V822.857143l241.371428-241.371429h-192.609524a48.761905 48.761905 0 0 0-48.761904 48.761905zM523.946667 469.333333A127.024762 127.024762 0 0 1 414.47619 405.699048v-125.318096a127.024762 127.024762 0 0 1 109.470477-63.634285 126.293333 126.293333 0 1 1 0 252.586666z m0-202.118095a76.068571 76.068571 0 0 0-75.824762 75.824762 75.337143 75.337143 0 0 0 16.822857 47.542857 75.824762 75.824762 0 1 0 59.001905-123.367619zM414.47619 469.333333h50.468572V115.809524H414.47619z"  horiz-adv-x="1024" />

    
    <glyph glyph-name="yunpanlogo-2" unicode="&#59093;" d="M902.095238 581.485714V42.666667a97.52381 97.52381 0 0 0-97.523809-97.52381H219.428571a97.52381 97.52381 0 0 0-97.523809 97.52381V725.333333a97.52381 97.52381 0 0 0 97.523809 97.52381h441.295239zM571.245714 175.055238h50.956191L707.047619 446.659048h-50.95619l-84.845715-271.60381zM660.72381 630.247619V822.857143l241.371428-241.371429h-192.609524a48.761905 48.761905 0 0 0-48.761904 48.761905zM622.201905 175.055238h-50.956191l-84.601904 237.470476h50.71238l84.845715-237.470476zM401.798095 175.055238h50.956191l84.601904 237.470476h-50.71238l-84.845715-237.470476zM452.754286 175.055238h-50.956191L316.952381 446.659048h50.95619l84.845715-271.60381z"  horiz-adv-x="1024" />

    
    <glyph glyph-name="yunpanlogo-3" unicode="&#59094;" d="M902.095238 581.485714V42.666667a97.52381 97.52381 0 0 0-97.523809-97.52381H219.428571a97.52381 97.52381 0 0 0-97.523809 97.52381V725.333333a97.52381 97.52381 0 0 0 97.523809 97.52381h441.295239zM660.72381 679.009524V822.857143l241.371428-241.371429h-143.847619a97.52381 97.52381 0 0 0-97.523809 97.52381zM701.927619 280.624762a94.841905 94.841905 0 0 0-94.841905-95.085714h-190.171428a94.841905 94.841905 0 0 0-9.508572 189.44 104.838095 104.838095 0 0 0 209.188572 0 94.841905 94.841905 0 0 0 85.333333-94.354286z"  horiz-adv-x="1024" />

    
    <glyph glyph-name="yunpanlogo-4" unicode="&#59095;" d="M902.095238 581.485714V42.666667a97.52381 97.52381 0 0 0-97.523809-97.52381H219.428571a97.52381 97.52381 0 0 0-97.523809 97.52381V725.333333a97.52381 97.52381 0 0 0 97.523809 97.52381h441.295239zM660.72381 654.628571V822.857143l241.371428-241.371429h-168.228571a73.142857 73.142857 0 0 0-73.142857 73.142857zM633.904762 459.580952v-187.001904c0-20.72381-24.380952-37.546667-56.076191-37.546667s-55.832381 16.822857-55.832381 37.546667 24.380952 37.546667 55.832381 37.546666a76.55619 76.55619 0 0 0 31.695239-6.582857v130.925714l-162.620953-38.278095v-166.521905c0-20.72381-24.380952-37.546667-56.807619-37.546666s-57.051429 16.822857-57.051428 37.546666 25.6 37.546667 57.051428 37.546667a76.312381 76.312381 0 0 0 32.426667-6.826667v161.401905a24.380952 24.380952 0 0 0 18.773333 24.380953l162.377143 37.790476a24.380952 24.380952 0 0 0 30.232381-24.380953z"  horiz-adv-x="1024" />

    
    <glyph glyph-name="yunpanlogo-5" unicode="&#59096;" d="M897.462857 581.485714V42.666667a97.52381 97.52381 0 0 0-97.523809-97.52381h-585.142858a97.52381 97.52381 0 0 0-97.523809 97.52381V725.333333a97.52381 97.52381 0 0 0 97.523809 97.52381h441.295239zM660.72381 679.009524V822.857143l241.371428-241.371429h-143.847619a97.52381 97.52381 0 0 0-97.523809 97.52381zM512 187.733333A134.826667 134.826667 0 1 0 646.339048 335.238095a24.380952 24.380952 0 0 0-6.582858-19.504762 24.380952 24.380952 0 0 0-18.529523-8.289523h-191.878096a84.114286 84.114286 0 0 1 153.112381-32.426667l41.935238-28.038095A135.070476 135.070476 0 0 0 512 187.733333zM436.419048 359.619048h151.893333a84.358095 84.358095 0 0 1-151.893333 0zM357.912381 230.4c-41.935238 0-73.142857 9.020952-78.750476 30.232381-13.897143 46.32381 88.746667 94.598095 133.607619 113.127619l9.264762-22.430476c-96.304762-39.984762-121.904762-73.142857-119.466667-83.382857 4.87619-15.847619 87.771429-24.380952 222.841905 16.579047s198.948571 94.354286 195.047619 110.201905c-3.657143 11.459048-50.468571 20.967619-139.702857 3.900952l-4.632381 24.380953c45.83619 8.777143 153.84381 24.380952 167.497143-20.72381S647.558095 296.228571 532.48 262.095238a646.095238 646.095238 0 0 0-174.567619-31.695238z"  horiz-adv-x="1024" />

    
    <glyph glyph-name="yunpanlogo-6" unicode="&#59097;" d="M902.095238 581.485714V42.666667a97.52381 97.52381 0 0 0-97.523809-97.52381H219.428571a97.52381 97.52381 0 0 0-97.523809 97.52381V725.333333a97.52381 97.52381 0 0 0 97.523809 97.52381h441.295239zM660.72381 679.009524V822.857143l241.371428-241.371429h-143.847619a97.52381 97.52381 0 0 0-97.523809 97.52381zM447.390476 822.857143h58.758095v-58.758095h-58.758095zM505.904762 764.099048h58.758095v-58.758096h-58.758095zM447.390476 705.584762h58.758095v-58.758095h-58.758095zM505.904762 646.826667h58.758095v-58.758096h-58.758095zM447.390476 588.312381h58.758095v-58.758095h-58.758095zM505.904762 529.554286h58.758095v-58.758096h-58.758095zM447.390476 470.79619h58.758095v-58.758095h-58.758095zM505.904762 412.281905h58.758095v-58.758095h-58.758095zM447.390476 286.47619v-117.028571a29.257143 29.257143 0 0 1 29.257143-29.257143H536.380952a29.257143 29.257143 0 0 1 29.257143 29.257143V286.47619zM536.380952 169.447619h-59.733333v58.758095H536.380952z"  horiz-adv-x="1024" />

    
    <glyph glyph-name="yunpanlogo-7" unicode="&#59098;" d="M902.095238 581.485714V42.666667a97.52381 97.52381 0 0 0-97.523809-97.52381H219.428571a97.52381 97.52381 0 0 0-97.523809 97.52381V725.333333a97.52381 97.52381 0 0 0 97.523809 97.52381h441.295239zM660.72381 679.009524V822.857143l241.371428-241.371429h-143.847619a97.52381 97.52381 0 0 0-97.523809 97.52381zM343.04 471.771429m24.380952 0l240.64 0q24.380952 0 24.380953-24.380953l0-182.369524q0-24.380952-24.380953-24.380952l-240.64 0q-24.380952 0-24.380952 24.380952l0 182.369524q0 24.380952 24.380952 24.380953ZM585.142857 335.238095l101.912381-58.758095a24.380952 24.380952 0 0 1 36.571429 20.967619v117.516191a24.380952 24.380952 0 0 1-36.571429 21.211428L585.142857 377.173333A24.380952 24.380952 0 0 1 585.142857 335.238095z"  horiz-adv-x="1024" />

    
    <glyph glyph-name="yunpanlogo-8" unicode="&#59099;" d="M877.714286 581.485714V42.666667a97.52381 97.52381 0 0 0-97.52381-97.52381H195.047619a97.52381 97.52381 0 0 0-97.523809 97.52381V725.333333a97.52381 97.52381 0 0 0 97.523809 97.52381h441.295238zM636.342857 679.009524V822.857143l241.371429-241.371429h-143.847619a97.52381 97.52381 0 0 0-97.52381 97.52381zM343.771429 457.142857h268.190476v-50.468571h-268.190476zM502.979048 406.674286v-220.891429h-50.468572v220.891429z"  horiz-adv-x="1024" />

    
    <glyph glyph-name="yunpanlogo-9" unicode="&#59100;" d="M897.462857 581.485714V42.666667a97.52381 97.52381 0 0 0-97.523809-97.52381h-585.142858a97.52381 97.52381 0 0 0-97.523809 97.52381V725.333333a97.52381 97.52381 0 0 0 97.523809 97.52381h441.295239zM660.72381 679.009524V822.857143l241.371428-241.371429h-143.847619a97.52381 97.52381 0 0 0-97.523809 97.52381zM287.939048 523.215238m48.761904 0l341.333334 0q48.761905 0 48.761904-48.761905l0-278.674285q0-48.761905-48.761904-48.761905l-341.333334 0q-48.761905 0-48.761904 48.761905l0 278.674285q0 48.761905 48.761904 48.761905ZM404.967619 435.931429m-29.013333 0a29.013333 29.013333 0 1 1 58.026666 0 29.013333 29.013333 0 1 1-58.026666 0ZM487.619048 254.537143L414.47619 310.857143l-83.382857-85.577143v-28.525714a19.992381 19.992381 0 0 1 20.72381-19.017143h312.32a20.23619 20.23619 0 0 1 20.967619 19.017143V310.857143l-73.142857 75.824762z"  horiz-adv-x="1024" />

    
    <glyph glyph-name="yunpanlogo-10" unicode="&#59103;" d="M902.095238 581.485714V42.666667a97.52381 97.52381 0 0 0-97.523809-97.52381H219.428571a97.52381 97.52381 0 0 0-97.523809 97.52381V725.333333a97.52381 97.52381 0 0 0 97.523809 97.52381h441.295239zM660.72381 630.247619V822.857143l241.371428-241.371429h-192.609524a48.761905 48.761905 0 0 0-48.761904 48.761905zM633.904762 318.171429a309.150476 309.150476 0 0 1-59.489524-6.826667 288.670476 288.670476 0 0 0-59.001905 76.068571c16.335238 52.906667 17.066667 88.990476 4.876191 106.057143a31.451429 31.451429 0 0 1-24.380953 12.434286 30.72 30.72 0 0 1-29.500952-15.36c-17.066667-28.281905 7.558095-84.358095 19.017143-107.032381a673.645714 673.645714 0 0 0-50.224762-117.516191c-91.184762-39.009524-93.866667-62.659048-93.866667-71.19238a27.794286 27.794286 0 0 1 16.091429-24.380953 24.380952 24.380952 0 0 1 14.140952-3.657143c24.380952 0 51.2 26.575238 80.700953 78.506667a658.285714 658.285714 0 0 0 112.64 36.083809 121.904762 121.904762 0 0 1 70.217143-28.525714c16.091429 0 48.761905 0 48.761904 32.426667 0.24381 10.971429-6.339048 31.939048-49.980952 32.914286z m-260.632381-124.342858h-2.925714a73.142857 73.142857 0 0 0 34.133333 27.550477 62.659048 62.659048 0 0 0-31.207619-27.550477z m116.540952 282.575239a5.851429 5.851429 0 0 0 3.900953 0h2.925714a80.944762 80.944762 0 0 0 0-48.761905 76.8 76.8 0 0 0-6.826667 48.761905z m48.761905-183.832381a588.068571 588.068571 0 0 1-64.609524-19.017143v1.950476h-1.950476c10.48381 20.72381 19.992381 42.666667 28.525714 64.365714v1.950476a292.571429 292.571429 0 0 1 37.790477-46.323809h-2.681905z m97.52381-12.434286a82.651429 82.651429 0 0 0-28.769524 6.339047 107.032381 107.032381 0 0 0 24.380952 1.950477c18.773333 0 22.674286-4.632381 22.674286-7.558096a40.96 40.96 0 0 0-18.529524-0.731428z"  horiz-adv-x="1024" />

    
    <glyph glyph-name="face_ID" unicode="&#59085;" d="M113.777778 628.622222C113.777778 651.377778 130.844444 668.444444 153.6 668.444444h258.844444V782.222222h-284.444444C56.888889 782.222222 0 722.488889 0 648.533333v-159.288889h113.777778V628.622222z m597.333333-438.044444c0 73.955556-39.822222 139.377778-102.4 173.511111 28.444444 25.6 45.511111 62.577778 45.511111 102.4 0 79.644444-62.577778 142.222222-142.222222 142.222222s-142.222222-62.577778-142.222222-142.222222c0-39.822222 17.066667-76.8 45.511111-102.4-59.733333-34.133333-102.4-99.555556-102.4-173.511111v-8.533334h113.777778c0 48.355556 36.977778 85.333333 85.333333 85.333334s85.333333-36.977778 85.333333-85.333334h113.777778v8.533334zM512 440.888889c-17.066667 0-28.444444 11.377778-28.444444 28.444444s11.377778 28.444444 28.444444 28.444445 28.444444-11.377778 28.444444-28.444445-11.377778-28.444444-28.444444-28.444444z m398.222222-301.511111c0-22.755556-17.066667-39.822222-39.822222-39.822222h-258.844444v-113.777778h284.444444c71.111111 0 128 59.733333 128 133.688889v173.511111h-113.777778v-153.6zM896 782.222222h-284.444444v-113.777778h258.844444c22.755556 0 39.822222-17.066667 39.822222-39.822222v-136.533333h113.777778V648.533333C1024 722.488889 967.111111 782.222222 896 782.222222zM113.777778 139.377778v150.755555H0v-173.511111C0 45.511111 56.888889-14.222222 128-14.222222h284.444444v113.777778H153.6c-22.755556 0-39.822222 17.066667-39.822222 39.822222z"  horiz-adv-x="1024" />

    
    <glyph glyph-name="comment" unicode="&#59087;" d="M819.2 896H204.8C88.177778 896 0 807.822222 0 691.2v-409.6c0-119.466667 85.333333-204.8 204.8-204.8v-65.422222c0-17.066667 0-68.266667 36.977778-105.244445 28.444444-28.444444 68.266667-34.133333 99.555555-34.133333 51.2 0 82.488889 25.6 105.244445 42.666667l193.422222 162.133333h179.2c113.777778 0 204.8 91.022222 204.8 204.8V691.2C1024 810.666667 938.666667 896 819.2 896z m68.266667-614.4c0-34.133333-22.755556-68.266667-68.266667-68.266667h-204.8c-17.066667 0-31.288889-5.688889-42.666667-17.066666l-204.8-170.666667-8.533333-5.688889c-5.688889-5.688889-14.222222-11.377778-17.066667-14.222222v136.533333c0 36.977778-31.288889 68.266667-68.266666 68.266667H204.8c-45.511111 0-68.266667 22.755556-68.266667 68.266667V691.2c0 42.666667 25.6 68.266667 68.266667 68.266667h614.4c31.288889 0 68.266667-11.377778 68.266667-68.266667v-409.6z"  horiz-adv-x="1024" />

    
    <glyph glyph-name="fingerprint" unicode="&#59088;" d="M708.266667 250.311111v250.311111c0 108.088889-88.177778 196.266667-196.266667 196.266667s-196.266667-88.177778-196.266667-196.266667v-250.311111s2.844444-51.2 56.888889-51.2 56.888889 51.2 56.888889 51.2v250.311111c0 45.511111 36.977778 85.333333 85.333333 85.333334s85.333333-36.977778 85.333334-85.333334v-250.311111s0-51.2 56.888889-51.2 51.2 51.2 51.2 51.2zM568.888889 893.155556c213.333333-19.911111 335.644444-130.844444 335.644444-361.244445 0-31.288889-25.6-56.888889-56.888889-56.888889s-56.888889 25.6-56.888888 56.888889C793.6 716.8 696.888889 782.222222 512 782.222222s-281.6-65.422222-281.6-253.155555c0-31.288889-25.6-56.888889-56.888889-56.888889s-56.888889 25.6-56.888889 56.888889C116.622222 759.466667 238.933333 870.4 452.266667 890.311111c0 0 34.133333 2.844444 51.2 2.844445 22.755556 2.844444 65.422222 0 65.422222 0zM568.888889-125.155556c213.333333 19.911111 335.644444 130.844444 335.644444 361.244445 0 31.288889-25.6 56.888889-56.888889 56.888889s-56.888889-25.6-56.888888-56.888889c0-184.888889-93.866667-250.311111-281.6-250.311111S227.555556 51.2 227.555556 236.088889c0 31.288889-25.6 56.888889-56.888889 56.888889s-56.888889-25.6-56.888889-56.888889c0-230.4 122.311111-341.333333 335.644444-361.244445 0 0 34.133333-2.844444 51.2-2.844444 25.6 0 68.266667 2.844444 68.266667 2.844444zM512 472.177778c31.288889 0 56.888889-25.6 56.888889-56.888889v-284.444445c0-31.288889-25.6-56.888889-56.888889-56.888888s-56.888889 25.6-56.888889 56.888888v284.444445c0 31.288889 25.6 56.888889 56.888889 56.888889z"  horiz-adv-x="1024" />

    
    <glyph glyph-name="card" unicode="&#59089;" d="M853.333333 896H170.666667C76.8 896 0 819.2 0 725.333333v-682.666666c0-93.866667 76.8-170.666667 170.666667-170.666667h682.666666c93.866667 0 170.666667 76.8 170.666667 170.666667V725.333333c0 93.866667-76.8 170.666667-170.666667 170.666667z m56.888889-853.333333c0-31.288889-25.6-56.888889-56.888889-56.888889H170.666667c-31.288889 0-56.888889 25.6-56.888889 56.888889V725.333333c0 31.288889 25.6 56.888889 56.888889 56.888889h682.666666c31.288889 0 56.888889-25.6 56.888889-56.888889v-682.666666zM440.888889 327.111111h147.911111v110.933333h-147.911111V327.111111zM256 136.533333c0-19.911111 17.066667-31.288889 36.977778-34.133333h36.977778v73.955556H256v-39.822223z m73.955556 375.466667H256v-258.844444h73.955556c5.688889 45.511111 36.977778 54.044444 36.977777 54.044444v147.911111s-25.6 8.533333-36.977777 56.888889z m443.733333 105.244444s0 39.822222-36.977778 39.822223h-36.977778V583.111111h73.955556V617.244444z m-184.888889-105.244444c19.911111 0 36.977778 17.066667 36.977778 36.977778V659.911111h-73.955556v-147.911111h36.977778z m-258.844444 147.911111h-36.977778c-2.844444 0-8.533333 0-11.377778-2.844444-14.222222-8.533333-25.6-17.066667-25.6-34.133334v-36.977777h73.955556c0 31.288889 2.844444 73.955556 0 73.955555z m332.8-204.8v-147.911111s31.288889-14.222222 36.977777-54.044444h73.955556v258.844444h-73.955556c-2.844444-48.355556-36.977778-56.888889-36.977777-56.888889z m36.977777-275.911111v-73.955556h36.977778c19.911111 2.844444 36.977778 11.377778 36.977778 34.133334v39.822222h-73.955556z m-110.933333 73.955556h-36.977778v-147.911112H625.777778v110.933334s5.688889 36.977778-36.977778 36.977778z m-184.888889-36.977778v-110.933334h73.955556v147.911112h-36.977778s-36.977778 0-36.977778-36.977778z m36.977778 295.822222h36.977778V659.911111h-73.955556v-110.933333c0-42.666667 36.977778-36.977778 36.977778-36.977778z"  horiz-adv-x="1024" />

    
    <glyph glyph-name="UAV" unicode="&#59090;" d="M924.444444 130.844444l-159.288888-159.288888c-22.755556-22.755556-22.755556-56.888889 0-79.644445 22.755556-22.755556 56.888889-22.755556 79.644444 0l159.288889 159.288889c22.755556 22.755556 22.755556 56.888889 0 79.644444-19.911111 19.911111-56.888889 19.911111-79.644445 0z m0 509.155556c22.755556-22.755556 56.888889-22.755556 79.644445 0 22.755556 22.755556 22.755556 56.888889 0 79.644444L844.8 878.933333c-22.755556 22.755556-56.888889 22.755556-79.644444 0-22.755556-22.755556-22.755556-56.888889 0-79.644444L924.444444 640z m-824.888888 0l159.288888 159.288889c22.755556 22.755556 22.755556 56.888889 0 79.644444-22.755556 22.755556-56.888889 22.755556-79.644444 0L17.066667 719.644444c-22.755556-22.755556-22.755556-56.888889 0-79.644444 22.755556-22.755556 59.733333-22.755556 82.488889 0z m699.733333-546.133333c22.755556 22.755556 22.755556 56.888889 0 79.644444L648.533333 327.111111c8.533333 17.066667 14.222222 36.977778 14.222223 59.733333 0 17.066667-2.844444 34.133333-8.533334 51.2l147.911111 147.911112c22.755556 22.755556 22.755556 56.888889 0 79.644444-22.755556 22.755556-56.888889 22.755556-79.644444 0l-145.066667-145.066667c-17.066667 8.533333-36.977778 11.377778-59.733333 11.377778-19.911111 0-42.666667-5.688889-59.733333-14.222222L312.888889 662.755556c-22.755556 22.755556-56.888889 22.755556-79.644445 0-22.755556-22.755556-22.755556-56.888889 0-79.644445l147.911112-147.911111c-5.688889-14.222222-8.533333-31.288889-8.533334-48.355556 0-19.911111 5.688889-39.822222 11.377778-59.733333l-150.755556-150.755555c-22.755556-22.755556-22.755556-56.888889 0-79.644445 22.755556-22.755556 56.888889-22.755556 79.644445 0l153.6 153.6c14.222222-5.688889 31.288889-8.533333 51.2-8.533333 17.066667 0 34.133333 2.844444 48.355555 8.533333l156.444445-156.444444c17.066667-19.911111 54.044444-19.911111 76.8 0z m-284.444445 233.244444c-34.133333 0-59.733333 25.6-59.733333 59.733333 0 34.133333 25.6 59.733333 59.733333 59.733334s59.733333-25.6 59.733334-59.733334c0-34.133333-25.6-59.733333-59.733334-59.733333zM99.555556 128c-22.755556 22.755556-56.888889 22.755556-79.644445 0-22.755556-22.755556-22.755556-56.888889 0-79.644444l159.288889-159.288889c22.755556-22.755556 56.888889-22.755556 79.644444 0 22.755556 22.755556 22.755556 56.888889 0 79.644444L99.555556 128z"  horiz-adv-x="1024" />

    
    <glyph glyph-name="car" unicode="&#58882;" d="M941.511111 512c14.222222 11.377778 25.6 28.444444 25.6 48.355556 0 34.133333-25.6 59.733333-59.733333 59.733333-19.911111 0-36.977778-11.377778-48.355556-25.6l-19.911111 110.933333c0 65.422222-54.044444 119.466667-119.466667 119.466667H301.511111c-65.422222 0-119.466667-54.044444-119.466667-119.466667l-19.911111-113.777778c-11.377778 11.377778-25.6 19.911111-45.511111 19.911112-34.133333 2.844444-59.733333-25.6-59.733333-56.888889 0-17.066667 5.688889-31.288889 17.066667-42.666667-42.666667-19.911111-73.955556-62.577778-73.955556-113.777778V184.888889c0-65.422222 54.044444-119.466667 119.466667-119.466667h42.666666v-65.422222c0-34.133333 28.444444-59.733333 59.733334-59.733333s59.733333 28.444444 59.733333 59.733333v65.422222h469.333333v-65.422222c0-34.133333 28.444444-59.733333 59.733334-59.733333 34.133333 0 59.733333 28.444444 59.733333 59.733333v65.422222h31.288889c65.422222 0 119.466667 54.044444 119.466667 119.466667v213.333333c2.844444 54.044444-31.288889 96.711111-79.644445 113.777778zM301.511111 708.266667h418.133333l31.288889-182.044445H270.222222l31.288889 182.044445zM119.466667 184.888889v213.333333h782.222222V184.888889H119.466667z m110.933333 167.822222c-34.133333 0-59.733333-25.6-59.733333-59.733333 0-34.133333 25.6-59.733333 59.733333-59.733334s59.733333 25.6 59.733333 59.733334c0 34.133333-28.444444 59.733333-59.733333 59.733333z m557.511111 0c-34.133333 0-59.733333-25.6-59.733333-59.733333 0-34.133333 25.6-59.733333 59.733333-59.733334s59.733333 25.6 59.733333 59.733334c0 34.133333-28.444444 59.733333-59.733333 59.733333z"  horiz-adv-x="1024" />

    
    <glyph glyph-name="camera" unicode="&#58881;" d="M992.711111 523.377778c-19.911111 8.533333-42.666667 5.688889-59.733333-8.533334l-122.311111-110.933333v48.355556c0 62.577778-42.666667 113.777778-99.555556 125.155555 5.688889 19.911111 11.377778 39.822222 11.377778 59.733334 0 59.733333-31.288889 116.622222-85.333333 147.911111-54.044444 31.288889-116.622222 31.288889-170.666667 0-22.755556-14.222222-42.666667-31.288889-56.888889-54.044445-14.222222 22.755556-34.133333 39.822222-56.888889 54.044445-54.044444 31.288889-116.622222 31.288889-170.666667 0-54.044444-31.288889-85.333333-88.177778-85.333333-147.911111 0-19.911111 2.844444-39.822222 11.377778-59.733334-59.733333-11.377778-108.088889-62.577778-108.088889-125.155555v-366.933334C0 14.222222 56.888889-42.666667 128-42.666667H682.666667c71.111111 0 128 56.888889 128 128v59.733334l122.311111-110.933334c11.377778-8.533333 22.755556-14.222222 36.977778-14.222222 8.533333 0 17.066667 2.844444 25.6 5.688889 19.911111 8.533333 31.288889 28.444444 31.288888 51.2V472.177778c0 19.911111-14.222222 39.822222-34.133333 51.2z m-443.733333 170.666666c31.288889 0 56.888889-25.6 56.888889-56.888888s-25.6-56.888889-56.888889-56.888889-56.888889 25.6-56.888889 56.888889 25.6 56.888889 56.888889 56.888888z m-284.444445 0c31.288889 0 56.888889-25.6 56.888889-56.888888s-25.6-56.888889-56.888889-56.888889-56.888889 25.6-56.888889 56.888889 25.6 56.888889 56.888889 56.888888z m392.533334-620.088888H150.755556c-22.755556 0-39.822222 17.066667-39.822223 36.977777V429.511111c0 19.911111 17.066667 36.977778 39.822223 36.977778H654.222222c22.755556 0 39.822222-17.066667 39.822222-36.977778v-318.577778c2.844444-19.911111-17.066667-36.977778-36.977777-36.977777z m256 125.155555l-73.955556 76.8 73.955556 76.8v-153.6z"  horiz-adv-x="1026" />

    
    <glyph glyph-name="course" unicode="&#59083;" d="M512 896C229.262222 896 0 666.737778 0 384s229.262222-512 512-512 512 229.262222 512 512S794.737778 896 512 896z m293.546667-682.097778l-278.186667-139.093333c-4.835556-2.56-9.955556-3.697778-15.36-3.697778-5.404444 0-10.524444 1.137778-15.644444 3.697778l-278.186667 139.093333c-17.066667 8.533333-24.177778 29.582222-15.644445 46.648889 8.533333 17.066667 29.582222 24.177778 46.648889 15.644445L512 144.782222l262.542222 131.413334c17.066667 8.533333 38.115556 1.706667 46.648889-15.644445 8.533333-17.351111 1.706667-38.115556-15.644444-46.648889z m0 139.093334l-278.186667-139.093334c-4.835556-2.56-10.24-3.697778-15.644444-3.697778-5.404444 0-10.524444 1.137778-15.644445 3.697778l-278.186667 139.093334c-17.066667 8.533333-24.177778 29.582222-15.644444 46.648888 8.533333 17.066667 29.582222 24.177778 46.648889 15.644445L512 283.875556l262.542222 131.413333c17.066667 8.533333 38.115556 1.706667 46.648889-15.644445 8.533333-17.351111 1.706667-38.115556-15.644444-46.648888z m0 139.093333l-278.186667-139.093333c-4.835556-2.56-10.24-3.697778-15.644444-3.697778-5.404444 0-10.524444 1.137778-15.644445 3.697778L218.453333 492.088889C206.506667 497.777778 199.111111 510.008889 199.111111 523.093333c0 13.084444 7.395556 25.315556 19.342222 31.004445l278.186667 139.093333c9.671111 4.835556 21.333333 4.835556 31.004444 0l278.186667-139.093333c11.662222-5.973333 19.342222-17.92 19.342222-31.004445-0.284444-13.084444-7.68-25.315556-19.626666-31.004444z"  horiz-adv-x="1024" />

    
    <glyph glyph-name="mobile_2" unicode="&#59084;" d="M426.666667 428.657778v-74.524445c0-22.755556 19.057778-41.244444 42.666666-41.244444s42.666667 18.488889 42.666667 41.244444v74.524445c0 39.253333 30.151111 59.164444 89.6 59.164444H796.444444v-41.813333c0-11.093333 13.084444-17.351111 22.186667-10.808889l114.915556 83.057778c7.395556 5.404444 7.395556 16.213333 0 21.333333l-114.915556 83.057778c-9.386667 7.111111-22.186667 0.853333-22.186667-10.24v-41.813333h-194.844444c-106.382222 0-174.933333-55.751111-174.933333-141.937778zM952.888889 426.666667c-23.608889 0-42.666667-18.488889-42.666667-41.244445v-74.524444c0-39.253333-30.151111-59.164444-89.6-59.164445H625.777778v41.813334c0 11.093333-13.084444 17.351111-22.186667 10.808889l-114.915555-83.057778c-7.395556-5.404444-7.395556-16.213333 0-21.333334l114.915555-83.057777c9.102222-6.542222 22.186667-0.284444 22.186667 10.808889v41.813333h194.844444c106.097778 0 174.933333 55.751111 174.933334 141.937778v74.524444c0 22.186667-19.057778 40.675556-42.666667 40.675556zM682.666667 126.008889c-15.075556 0-27.022222-11.662222-28.16-26.453333H654.222222v-19.342223c0-20.764444-16.782222-37.546667-37.546666-37.546666H122.88C102.115556 42.666667 85.333333 59.448889 85.333333 80.213333V687.786667C85.333333 708.551111 102.115556 725.333333 122.88 725.333333h493.795556c20.764444 0 37.546667-16.782222 37.546666-37.546666V668.444444c0-15.644444 12.8-28.444444 28.444445-28.444444s28.444444 12.8 28.444444 28.444444V806.968889C711.111111 856.177778 671.288889 896 622.08 896H117.475556C68.266667 896 28.444444 856.177778 28.444444 806.968889v-845.653333C28.444444-88.177778 68.266667-128 117.475556-128h504.32C671.288889-128 711.111111-88.177778 711.111111-38.968889V99.555556h-0.284444a28.302222 28.302222 0 0 1-28.16 26.453333zM341.333333 839.111111h170.666667c15.644444 0 28.444444-12.8 28.444444-28.444444s-12.8-28.444444-28.444444-28.444445h-170.666667c-15.644444 0-28.444444 12.8-28.444444 28.444445s12.8 28.444444 28.444444 28.444444zM227.555556 839.111111c15.644444 0 28.444444-12.8 28.444444-28.444444s-12.8-28.444444-28.444444-28.444445-28.444444 12.8-28.444445 28.444445 12.8 28.444444 28.444445 28.444444z m199.111111-910.222222c0-15.644444-12.8-28.444444-28.444445-28.444445h-56.888889c-15.644444 0-28.444444 12.8-28.444444 28.444445v56.888889c0 15.644444 12.8 28.444444 28.444444 28.444444h56.888889c15.644444 0 28.444444-12.8 28.444445-28.444444v-56.888889z"  horiz-adv-x="1024" />

    
    <glyph glyph-name="upload_" unicode="&#59081;" d="M170.666667 725.333333h227.555555v-56.888889H170.666667zM170.666667 526.222222h284.444444v-56.888889H170.666667zM751.217778 896H113.777778C50.915556 896 0 845.084444 0 782.222222v-796.444444c0-62.862222 50.915556-113.777778 113.777778-113.777778h796.444444c62.862222 0 113.777778 50.915556 113.777778 113.777778V623.217778L751.217778 896zM739.555556 827.448889L955.448889 611.555556H739.555556V827.448889zM910.222222-71.111111H113.777778c-31.288889 0-56.888889 25.6-56.888889 56.888889V782.222222c0 31.288889 25.6 56.888889 56.888889 56.888889h568.888889v-284.444444h284.444444v-568.888889c0-31.288889-25.6-56.888889-56.888889-56.888889zM853.333333 171.235556L667.875556 355.555556 483.555556 170.951111l39.253333-38.684444 117.475555 117.76V14.222222h55.182223v236.088889l118.897777-118.044444z"  horiz-adv-x="1024" />

    
    <glyph glyph-name="play" unicode="&#59082;" d="M1024 384c0 281.6-230.4 512-512 512S0 665.6 0 384s230.4-512 512-512 512 230.4 512 512zM113.777778 384c0 219.022222 179.2 398.222222 398.222222 398.222222s398.222222-179.2 398.222222-398.222222-179.2-398.222222-398.222222-398.222222S113.777778 164.977778 113.777778 384zM412.444444 71.111111c-8.533333 0-17.066667 2.844444-25.6 5.688889-19.911111 8.533333-31.288889 28.444444-31.288888 51.2V640c0 22.755556 11.377778 42.666667 31.288888 51.2 19.911111 8.533333 42.666667 5.688889 59.733334-8.533333l315.733333-256c14.222222-11.377778 19.911111-25.6 19.911111-42.666667s-8.533333-34.133333-19.911111-42.666667l-315.733333-256c-8.533333-8.533333-19.911111-14.222222-34.133334-14.222222z m56.888889 449.422222v-273.066666l164.977778 136.533333-164.977778 136.533333z"  horiz-adv-x="1024" />

    
    <glyph glyph-name="guidang" unicode="&#59080;" d="M312.888889 697.173333h398.222222v-85.333333H312.888889zM910.222222 526.222222h-28.444444V810.666667c0 46.933333-38.4 85.333333-85.333334 85.333333H227.555556C180.622222 896 142.222222 857.6 142.222222 810.666667v-455.111111H113.777778c-62.862222 0-113.777778-50.915556-113.777778-113.777778v-256c0-62.862222 50.915556-113.777778 113.777778-113.777778h796.444444c62.862222 0 113.777778 50.915556 113.777778 113.777778V412.444444c0 62.862222-50.915556 113.777778-113.777778 113.777778zM256 782.222222h512v-256h-227.555556c-19.057778 0-36.693333-9.386667-47.217777-25.315555L398.222222 355.555556H256V782.222222z m654.222222-796.444444H113.777778v256h312.32c18.488889-0.284444 36.693333 8.817778 47.786666 25.315555L570.88 412.444444H910.222222v-426.666666z"  horiz-adv-x="1024" />

    
    <glyph glyph-name="chekongwenben-copy" unicode="&#59079;" d="M853.333333 839.111111h-56.888889c-31.288889 0-56.888889-25.6-56.888888-56.888889s25.6-56.888889 56.888888-56.888889h14.222223c23.04 0 36.693333-9.386667 41.244444-28.16 0.853333-4.266667 1.422222-9.102222 1.422222-14.506666v-13.937778c0-31.288889 25.6-56.888889 56.888889-56.888889s56.888889 25.6 56.888889 56.888889V725.333333c0 62.862222-50.915556 113.777778-113.777778 113.777778zM398.222222 782.222222h227.555556c31.288889 0 56.888889 25.6 56.888889 56.888889s-25.6 56.888889-56.888889 56.888889h-227.555556c-31.288889 0-56.888889-25.6-56.888889-56.888889s25.6-56.888889 56.888889-56.888889zM950.613333 534.1866669999999l-3.982222 3.982222c-21.902222 21.902222-57.742222 21.902222-79.644444 0L739.555556 410.737778l-127.431112 127.431111c-21.902222 21.902222-57.742222 21.902222-79.644444 0l-3.982222-3.982222c-21.902222-21.902222-21.902222-57.742222 0-79.644445L655.928889 327.11111100000005l-127.431111-127.431111c-21.902222-21.902222-21.902222-57.742222 0-79.644444l3.982222-3.982223c21.902222-21.902222 57.742222-21.902222 79.644444 0L739.555556 243.48444400000005l127.431111-127.431111c21.902222-21.902222 57.742222-21.902222 79.644444 0l3.982222 3.982223c21.902222 21.902222 21.902222 57.742222 0 79.644444L823.182222 327.11111100000005l127.431111 127.431111c21.902222 21.902222 21.902222 57.742222 0 79.644445zM910.222222 42.66666699999996c-31.288889 0-56.888889-25.6-56.888889-56.888889H213.617778c-28.444444 0-42.666667 14.222222-42.666667 42.666666v654.222223C170.666667 711.1111109999999 184.888889 725.333333 213.333333 725.333333H227.555556c31.288889 0 56.888889 25.6 56.888888 56.888889s-25.6 56.888889-56.888888 56.888889H170.666667C107.804444 839.111111 56.888889 788.195556 56.888889 725.333333v-739.555555c0-62.862222 50.915556-113.777778 113.777778-113.777778h693.475555v1.137778a113.095111 113.095111 0 0 1 101.831111 101.262222A57.059556 57.059556 0 0 1 910.222222 42.66666699999996z"  horiz-adv-x="1024" />

    
    <glyph glyph-name="internet" unicode="&#59074;" d="M941.230204 585.488617c-51.166514 90.962692-133.601454 162.027295-233.091899 198.980889 119.388534 62.536851 213.19381 71.064603 252.989988 17.055505 17.055505-25.583257 22.740673-62.536851 14.21292-105.175613h11.370337c14.212921 76.749772 0 139.286622-42.638762 173.397632C873.008185 920.913544 747.934483 895.330287 605.805276 810.052763c-8.527752-5.685168-22.740673-5.685168-36.953593-5.685168-196.138305 0-361.008185-133.601454-412.174699-315.526839 65.379435 62.536851 150.656959 127.916286 264.360324 173.397632l-2.842584-2.842584c-39.796178-36.953594-79.592356-73.907187-116.54595-116.545949C256.167428 491.683341 213.528666 437.674242 176.575073 383.665144c-11.370337-14.212921-19.898089-28.425841-25.583258-39.796178-2.842584-2.842584-2.842584-5.685168-5.685168-8.527753C23.075529 139.202908-8.192896-34.194724 77.084628-99.574159c71.064603-56.851683 213.19381-22.740673 363.850769 76.749772 39.796178-11.370337 82.43494-19.898089 127.916286-19.898089 207.508642 0 378.063689 147.814375 417.859867 341.110096h-278.573245c-14.212921-65.379435-71.064603-113.703365-139.286622-113.703366-79.592356 0-142.129207 62.536851-142.129207 142.129207v56.851683h568.516826c0 68.222019-17.055505 130.75887-42.638762 184.767968M568.851683 636.655131c79.592356 0 142.129207-62.536851 142.129206-142.129206H426.722476c0 79.592356 62.536851 142.129207 142.129207 142.129206zM116.880806-28.509555c-36.953594 54.009098-14.212921 156.342127 48.32393 275.73066 39.796178-110.860781 122.231118-198.980889 227.40673-244.462235-127.916286-73.907187-233.091899-90.962692-275.73066-31.268425z"  horiz-adv-x="1024" />

    
    <glyph glyph-name="folder_2" unicode="&#59075;" d="M961.706667 707.697778H481.28l-93.582222 112.924444A49.777778 49.777778 0 0 1 348.728889 839.111111H62.293333C28.16 839.111111 0 811.235556 0 777.386667v-786.773334C0-43.235556 28.16-71.111111 62.293333-71.111111H961.422222c34.417778 0 62.293333 27.875556 62.293334 61.724444V645.973333c0.284444 34.133333-27.875556 61.724444-62.008889 61.724445zM227.555556 156.444444c-31.288889 0-56.888889 25.6-56.888889 56.888889s25.6 56.888889 56.888889 56.888889 56.888889-25.6 56.888888-56.888889-25.6-56.888889-56.888888-56.888889z m0 199.111112c-31.288889 0-56.888889 25.6-56.888889 56.888888s25.6 56.888889 56.888889 56.888889 56.888889-25.6 56.888888-56.888889-25.6-56.888889-56.888888-56.888888z m568.888888-199.111112H398.222222c-31.288889 0-56.888889 25.6-56.888889 56.888889s25.6 56.888889 56.888889 56.888889h398.222222c31.288889 0 56.888889-25.6 56.888889-56.888889s-25.6-56.888889-56.888889-56.888889z m0 199.111112H398.222222c-31.288889 0-56.888889 25.6-56.888889 56.888888s25.6 56.888889 56.888889 56.888889h398.222222c31.288889 0 56.888889-25.6 56.888889-56.888889s-25.6-56.888889-56.888889-56.888888z"  horiz-adv-x="1024" />

    
    <glyph glyph-name="people_16" unicode="&#59076;" d="M512 640m-256 0a256 256 0 1 1 512 0 256 256 0 1 1-512 0ZM966.542222-62.008889C934.968889 151.608889 727.893333 355.555556 512 355.555556S89.031111 151.893333 57.457778-61.724444C52.337778-96.711111 79.075556-128 114.631111-128h795.022222c35.271111 0 62.008889 31.288889 56.888889 65.991111z"  horiz-adv-x="1024" />

    
    <glyph glyph-name="text_6" unicode="&#59077;" d="M739.555556 753.777778l-137.955556 0.568889h-164.977778L284.444444 753.777778v-113.777778h455.111112zM369.777778 753.777778c0 78.506667 63.715556 142.222222 142.222222 142.222222s142.222222-63.715556 142.222222-142.222222M837.404444 753.777778H796.444444v-170.666667H227.555556V753.777778H184.888889C113.208889 753.777778 56.888889 696.035556 56.888889 625.777778v-626.631111C56.888889-70.826667 115.2-128 186.595556-128h650.524444c71.68 0 129.706667 57.173333 129.706667 127.146667V625.777778C967.111111 696.035556 908.8 753.777778 837.404444 753.777778zM739.555556 67.982222c0-29.582222-23.893333-53.76-53.76-53.76H338.204444c-29.866667 0-53.76 23.893333-53.76 53.76v6.542222c0 29.582222 23.893333 53.76 53.76 53.76h347.875556c29.582222 0 53.76-23.893333 53.76-53.76v-6.542222z m0 170.666667c0-29.582222-23.893333-53.76-53.76-53.76H338.204444c-29.866667 0-53.76 23.893333-53.76 53.76v6.542222c0 29.582222 23.893333 53.76 53.76 53.76h347.875556c29.582222 0 53.76-23.893333 53.76-53.76v-6.542222z m0 170.666667c0-29.582222-23.893333-53.76-53.76-53.76H338.204444c-29.866667 0-53.76 23.893333-53.76 53.76v6.542222c0 29.582222 23.893333 53.76 53.76 53.76h347.875556c29.582222 0 53.76-23.893333 53.76-53.76v-6.542222z"  horiz-adv-x="1024" />

    
    <glyph glyph-name="task_" unicode="&#59078;" d="M967.111111 871.822222H56.888889c-31.288889 0-56.888889-25.6-56.888889-56.888889v-170.666666c0-31.288889 25.6-56.888889 56.888889-56.888889h910.222222c31.288889 0 56.888889 25.6 56.888889 56.888889v170.666666c0 31.288889-25.6 56.888889-56.888889 56.888889z m-768-199.111111c-31.288889 0-56.888889 25.6-56.888889 56.888889s25.6 56.888889 56.888889 56.888889 56.888889-25.6 56.888889-56.888889a56.888889 56.888889 0 0 0-56.888889-56.888889zM967.111111 530.488889H56.888889c-31.288889 0-56.888889-25.6-56.888889-56.888889v-170.666667c0-31.288889 25.6-56.888889 56.888889-56.888889h910.222222c31.288889 0 56.888889 25.6 56.888889 56.888889v170.666667c0 31.288889-25.6 56.888889-56.888889 56.888889z m-768-199.111111c-31.288889 0-56.888889 25.6-56.888889 56.888889s25.6 56.888889 56.888889 56.888889 56.888889-25.6 56.888889-56.888889a56.888889 56.888889 0 0 0-56.888889-56.888889zM967.111111 189.155556H56.888889c-31.288889 0-56.888889-25.6-56.888889-56.888889v-170.666667c0-31.288889 25.6-56.888889 56.888889-56.888889h910.222222c31.288889 0 56.888889 25.6 56.888889 56.888889v170.666667c0 31.288889-25.6 56.888889-56.888889 56.888889z m-768-199.111112c-31.288889 0-56.888889 25.6-56.888889 56.888889s25.6 56.888889 56.888889 56.888889 56.888889-25.6 56.888889-56.888889a56.888889 56.888889 0 0 0-56.888889-56.888889z"  horiz-adv-x="1024" />

    
    <glyph glyph-name="nav_home" unicode="&#58919;" d="M1007.910226 422.709463L550.814058 879.805631a54.485863 54.485863 0 0 1-77.523511 0L251.690325 658.205409v36.567693c0 30.351186-24.866032 54.85154-54.85154 54.851541s-54.85154-24.500355-54.85154-54.851541v-146.270773L16.194379 422.709463a54.485863 54.485863 0 0 1 0-77.52351c21.574939-21.574939 56.314248-21.574939 77.52351 0l16.089786 16.089785V-54.864613c0-40.224463 32.910924-73.135387 73.135386-73.135387h658.218482c40.224463 0 73.135387 32.910924 73.135387 73.135387V361.275738l16.089785-16.089785c10.604631-10.604631 24.866032-16.089785 38.761756-16.089785s28.157124 5.485154 38.761755 16.089785c21.574939 21.574939 21.574939 55.948571 0 77.52351zM841.161543-54.864613h-182.838467v329.109241c0 20.112231-16.455462 36.567693-36.567693 36.567693h-219.406161c-20.112231 0-36.567693-16.455462-36.567693-36.567693v-329.109241H182.943061V434.411125l329.109241 329.109241 329.109241-329.109241V-54.864613z"  horiz-adv-x="1024" />

    
    <glyph glyph-name="promptfailure1" unicode="&#59071;" d="M512 896C229.262222 896 0 666.737778 0 384s229.262222-512 512-512 512 229.262222 512 512S794.737778 896 512 896z m0-881.777778c-31.288889 0-56.888889 25.6-56.888889 56.888889s25.6 56.888889 56.888889 56.888889 56.888889-25.6 56.888889-56.888889-25.6-56.888889-56.888889-56.888889z m56.888889 285.582222V241.777778c0-31.288889-25.6-56.888889-56.888889-56.888889s-56.888889 25.6-56.888889 56.888889v107.235555c0 31.288889 25.6 56.888889 56.888889 56.888889 50.915556 0 92.444444 39.822222 92.444444 88.746667S562.915556 583.111111 512 583.111111c-35.84 0-68.551111-20.195556-83.911111-51.2-5.688889-11.662222-8.533333-24.462222-8.533333-37.546667 0-31.288889-25.6-56.888889-56.888889-56.888888s-56.888889 25.6-56.888889 56.888888c0 30.72 6.826667 60.017778 20.195555 87.608889C360.106667 651.662222 433.208889 696.888889 512 696.888889c113.777778 0 206.222222-90.737778 206.222222-202.524445 0-92.16-63.146667-170.097778-149.333333-194.56z"  horiz-adv-x="1024" />

    
    <glyph glyph-name="distribute_" unicode="&#59072;" d="M270.222222 199.111111V156.444444h483.555556v42.666667c0 97.28-46.364444 174.364444-121.173334 213.333333 22.471111 27.022222 35.84 61.724444 35.84 99.555556 0 86.186667-70.257778 156.444444-156.444444 156.444444s-156.444444-70.257778-156.444444-156.444444c0-37.831111 13.368889-72.248889 35.84-99.555556-74.808889-38.968889-121.173333-116.053333-121.173334-213.333333z m170.666667 312.888889a71.111111 71.111111 0 0 0 142.222222 0 71.111111 71.111111 0 0 0-142.222222 0zM512 355.555556c81.351111 0 136.817778-42.666667 152.177778-113.777778h-304.355556c15.36 71.111111 70.826667 113.777778 152.177778 113.777778zM910.222222 298.666667c-31.288889 0-56.888889-25.6-56.888889-56.888889v-78.506667l-341.333333-170.666667-341.333333 170.666667v129.137778c17.351111 15.644444 28.444444 38.115556 28.444444 63.146667 0 47.217778-38.115556 85.333333-85.333333 85.333333s-85.333333-38.115556-85.333334-85.333333c0-25.031111 11.093333-47.502222 28.444445-63.146667V128a56.888889 56.888889 0 0 1 31.573333-50.915556l398.222222-199.111111c7.964444-3.982222 16.497778-5.973333 25.315556-5.973333s17.351111 1.991111 25.315556 5.973333l398.222222 199.111111A56.888889 56.888889 0 0 1 967.111111 128v113.777778c0 31.288889-25.6 56.888889-56.888889 56.888889zM967.111111 504.035556V640a56.888889 56.888889 0 0 1-31.573333 50.915556l-398.222222 199.111111c-15.928889 7.964444-34.986667 7.964444-50.915556 0l-398.222222-199.111111C69.12 681.244444 56.888889 661.617778 56.888889 640v-85.333333c0-31.288889 25.6-56.888889 56.888889-56.888889s56.888889 25.6 56.888889 56.888889v50.062222l341.333333 170.666667 341.333333-170.666667v-100.693333c-17.351111-15.644444-28.444444-38.115556-28.444444-63.146667 0-47.217778 38.115556-85.333333 85.333333-85.333333s85.333333 38.115556 85.333334 85.333333c0 25.031111-11.093333 47.502222-28.444445 63.146667z"  horiz-adv-x="1024" />

    
    <glyph glyph-name="return" unicode="&#59073;" d="M934.610488 495.677523a452.727884 452.727884 0 0 1-242.873053 249.698525c-88.162349 37.824492-183.71896 46.356332-275.578441 26.448705L374.068582 878.757151c-7.678656 19.623233-32.989782 23.320363-45.218753 6.825472l-209.598876-283.825886a27.301889 27.301889 0 0 1 17.063681-42.943596l345.53953-60.576066c20.192022-3.412736 35.833729 16.779286 28.155073 36.402519l-51.191041 129.683972c63.135618 10.238208 127.977604 2.559552 187.98488-23.320364 83.612035-36.118124 148.454021-102.382083 182.296987-187.131696 33.842966-84.749613 32.420993-177.462277-3.412736-261.358707-36.118124-83.896429-102.382083-148.454021-187.131696-182.296987-130.252761-51.759831-281.550729-17.63247-376.822945 85.034008-28.439468 30.714625-50.906647 66.263959-66.548354 105.794819a56.822056 56.822056 0 0 1-73.942616 31.852204 56.822056 56.822056 0 0 1-31.852204-73.942616c21.045206-52.32862 50.906647-99.822531 88.731139-140.775364 87.309165-94.419032 210.45206-145.325679 335.016928-145.325679 56.310146 0 113.189081 10.522603 167.224069 31.852204 233.203634 92.428269 347.245899 357.768502 254.24884 590.972135z"  horiz-adv-x="1024" />

    
    <glyph glyph-name="piliangxiazai-copy" unicode="&#58896;" d="M250.311111 668.444444c-28.444444 0-51.2-25.6-51.2-56.888888 0-31.573333 22.755556-56.888889 51.2-56.888889h466.488889c28.444444 0 51.2 25.315556 51.2 56.888889 0 31.288889-22.755556 56.888889-51.2 56.888888H250.311111zM455.111111-14.222221999999988H170.666667c-27.591111 0-56.888889 28.444444-56.888889 56.888889V725.333333c0 28.444444 28.444444 56.888889 56.888889 56.888889h625.777777c28.444444 0 56.888889-28.444444 56.888889-56.888889v-199.111111a56.888889 56.888889 0 1 1 113.777778 0V782.222222c0 56.888889-56.888889 113.777778-113.777778 113.777778H113.777778C56.888889 896 0 839.111111 0 782.222222v-796.444444c0-56.888889 57.742222-113.777778 113.777778-113.777778h341.333333a56.888889 56.888889 0 1 1 0 113.777778zM568.888889 412.444444a56.888889 56.888889 0 0 1-56.888889 56.888889H256c-31.573333 0-56.888889-25.315556-56.888889-56.888889s25.315556-56.888889 56.888889-56.888888h256a56.888889 56.888889 0 0 1 56.888889 56.888888zM1010.915556 107.51999999999998a57.173333 57.173333 0 0 1-80.213334 7.395556L853.333333 50.346667000000025V327.11111100000005c0 31.288889-25.6 56.888889-56.888889 56.888889s-56.888889-25.6-56.888888-56.888889v-276.764444l-77.368889 64.568889a56.888889 56.888889 0 0 1-80.213334-7.395556 56.888889 56.888889 0 0 1 7.395556-80.213333l170.666667-142.222223c10.524444-8.817778 23.324444-13.084444 36.408888-13.084444s25.884444 4.266667 36.408889 13.084444l170.666667 142.222223c24.177778 20.195556 27.306667 56.035556 7.395556 80.213333z"  horiz-adv-x="1024" />

    
    <glyph glyph-name="change_" unicode="&#59070;" d="M1022.919111 396.600889c-2.616889 9.443556-9.841778 15.843556-17.92 15.843555h-39.338667C950.869333 650.097778 753.322667 839.111111 512 839.111111 384.113778 839.111111 261.404444 784.867556 175.445333 690.289778a56.888889 56.888889 0 0 1 84.167111-76.572445A341.76 341.76 0 0 0 512 725.333333c178.602667 0 325.347556-137.955556 339.882667-312.888889h-36.437334c-8.078222 0-15.246222-6.4-17.92-15.843555-2.673778-9.500444-0.227556-20.138667 6.030223-26.396445l94.805333-94.776888c3.527111-3.470222 7.68-5.205333 11.861333-5.205334s8.334222 1.735111 11.861334 5.233778l94.833777 94.776889c6.229333 6.229333 8.675556 16.867556 6.001778 26.368zM764.444444 154.225778A342.613333 342.613333 0 0 0 512 42.666667c-178.602667 0-325.347556 137.955556-339.882667 312.888889h36.437334c8.106667 0 15.246222 6.4 17.92 15.843555 2.673778 9.500444 0.284444 20.110222-6.030223 26.396445l-94.805333 94.805333C122.112 496.042667 117.959111 497.777778 113.777778 497.777778s-8.334222-1.735111-11.861334-5.205334L7.082667 397.767111c-6.286222-6.286222-8.675556-16.896-6.001778-26.396444 2.616889-9.415111 9.813333-15.815111 17.92-15.815111h39.338667C73.130667 117.902222 270.677333-71.111111 512-71.111111c127.630222 0 250.311111 54.158222 336.497778 148.622222a56.917333 56.917333 0 0 1-84.053334 76.714667zM352.967111 184.888889c62.549333 23.324444 115.427556 51.228444 158.236445 83.598222 42.752-33.592889 94.862222-60.700444 155.648-81.208889 7.367111 12.401778 22.101333 32.113778 44.288 59.079111-60.615111 15.075556-111.246222 36.807111-152.462223 65.308445 38.087111 42.012444 66.958222 93.326222 87.182223 154.055111H711.111111v54.357333h-158.606222A1809.863111 1809.863111 0 0 1 529.550222 583.111111l-61.155555-12.458667c6.997333-20.053333 12.544-36.949333 16.782222-50.574222H312.888889v-54.357333h69.176889c15.985778-58.993778 43.235556-110.08 81.749333-153.002667-40.533333-27.619556-90.965333-50.801778-150.926222-69.489778 12.401778-15.559111 25.685333-35.015111 40.078222-58.339555z m90.965333 280.832h133.717334a273.408 273.408 0 0 0-66.787556-113.863111 284.131556 284.131556 0 0 0-66.929778 113.863111z"  horiz-adv-x="1024" />

    
    <glyph glyph-name="qingbaochucai" unicode="&#58885;" d="M439.222857-54.857143H133.851429A134.217143 134.217143 0 0 0 0 79.36V761.782857A134.217143 134.217143 0 0 0 133.851429 896h610.011428A134.217143 134.217143 0 0 0 877.714286 761.782857V493.714286c0-20.114286-16.457143-36.571429-36.571429-36.571429s-36.571429 16.457143-36.571428 36.571429V761.782857C804.571429 795.428571 777.142857 822.857143 743.497143 822.857143H133.851429c-33.645714 0-61.074286-27.428571-61.074286-61.074286v-682.422857c0-33.645714 27.428571-61.074286 60.708571-61.074286H438.857143c20.114286 0 36.571429-16.457143 36.571428-36.571428s-16.091429-36.571429-36.205714-36.571429zM796.525714 366.08l54.125715-115.565714c4.388571-9.508571 13.531429-16.457143 24.137142-17.92l122.148572-18.651429c25.965714-4.022857 36.205714-35.474286 17.92-54.125714l-90.331429-92.525714c-7.314286-7.314286-10.605714-17.92-8.777143-27.794286l21.211429-129.097143a31.926857 31.926857 0 0 0-46.811429-33.28l-107.154285 59.245714a31.195429 31.195429 0 0 1-29.988572 0l-107.885714-59.611428a31.341714 31.341714 0 0 0-46.08 32.914285l21.211429 130.194286a31.305143 31.305143 0 0 1-8.777143 27.794286l-90.331429 92.525714c-18.285714 18.651429-7.68 50.468571 17.92 54.125714l122.514286 18.651429c10.24 1.462857 19.017143 8.045714 23.771428 17.554286l54.125715 115.565714c11.337143 23.771429 45.714286 23.771429 57.051428 0zM658.285714 603.428571H219.428571c-20.114286 0-36.571429 16.457143-36.571428 36.571429s16.457143 36.571429 36.571428 36.571429h438.857143c20.114286 0 36.571429-16.457143 36.571429-36.571429s-16.457143-36.571429-36.571429-36.571429zM512.365714 420.571429H219.062857c-19.748571 0-36.205714 16.457143-36.205714 36.205714V457.142857a36.571429 36.571429 0 0 0 36.205714 36.571429H512c20.114286 0 36.205714-16.457143 36.205714-36.205715V457.142857c0.365714-20.114286-16.091429-36.571429-35.84-36.571428zM438.857143 237.714286H219.428571c-20.114286 0-36.571429 16.457143-36.571428 36.571428s16.457143 36.571429 36.571428 36.571429h219.428572c20.114286 0 36.571429-16.457143 36.571428-36.571429s-16.457143-36.571429-36.571428-36.571428z"  horiz-adv-x="1024" />

    
    <glyph glyph-name="other_4" unicode="&#59069;" d="M540.444444 554.666667H142.222222c-78.421333 0-142.222222-63.800889-142.222222-142.222223v-398.222222c0-78.421333 63.800889-142.222222 142.222222-142.222222h398.222222c78.421333 0 142.222222 63.800889 142.222223 142.222222V412.444444c0 78.421333-63.800889 142.222222-142.222223 142.222223z m28.444445-540.444445a28.444444 28.444444 0 0 0-28.444445-28.444444H142.222222a28.444444 28.444444 0 0 0-28.444444 28.444444V412.444444a28.444444 28.444444 0 0 0 28.444444 28.444445h398.222222a28.444444 28.444444 0 0 0 28.444445-28.444445v-398.222222zM711.111111 725.333333H256a56.888889 56.888889 0 0 1 0-113.777777h455.111111a28.444444 28.444444 0 0 0 28.444445-28.444445v-455.111111a56.888889 56.888889 0 0 1 113.777777 0V583.111111c0 78.421333-63.800889 142.222222-142.222222 142.222222zM881.777778 896H426.666667a56.888889 56.888889 0 0 1 0-113.777778h455.111111a28.444444 28.444444 0 0 0 28.444444-28.444444v-455.111111a56.888889 56.888889 0 0 1 113.777778 0V753.777778c0 78.421333-63.800889 142.222222-142.222222 142.222222zM455.111111 156.444444H227.555556a56.888889 56.888889 0 0 1 0-113.777777h227.555555a56.888889 56.888889 0 0 1 0 113.777777z"  horiz-adv-x="1024" />

    
    <glyph glyph-name="resend" unicode="&#59068;" d="M341.099964-13.599904H170.549982c-27.600672 0-56.849994 28.424997-56.849994 56.849994V725.450018c0 28.424997 28.424997 56.849994 56.849994 56.849994h625.349934c28.396572 0 56.849994-28.424997 56.849994-56.849994v-255.824973a56.849994 56.849994 0 0 1 56.849994-56.849994c31.267497 0 56.849994 25.582497 56.849994 56.849994V782.300012c0 56.849994-56.849994 113.699988-113.699988 113.699988H113.699988C56.849994 896 0 839.150006 0 782.300012v-795.899916c0-56.849994 57.702744-113.699988 113.699988-113.699988h227.399976a56.849994 56.849994 0 1 1 0 113.699988zM767.474919 611.75003c0 31.267497-28.424997 56.849994-56.849994 56.849994H255.824973c-28.424997 0-56.849994-25.582497-56.849994-56.849994 0-31.580172 28.424997-56.849994 56.849994-56.849994h454.799952c28.424997 0 56.849994 25.269822 56.849994 56.849994zM255.824973 469.625045c-31.551747 0-56.849994-25.326672-56.849994-56.849994s25.298247-56.849994 56.849994-56.849994h284.24997a56.849994 56.849994 0 0 1 0 113.699988H255.824973zM1013.749093 68.605187c0.881175 1.335975 1.506525 2.814075 2.274 4.2069 0.994875 1.8192 2.10345 3.609975 2.9562 5.542874 0.73905 1.847625 1.19385 3.780525 1.76235 5.684999 0.483225 1.64865 1.108575 3.212025 1.478099 4.917525a57.503769 57.503769 0 0 1 0 22.256773c-0.369525 1.7055-0.994875 3.268875-1.478099 4.917524-0.5685 1.904475-0.994875 3.837375-1.76235 5.684999-0.824325 1.9329-1.9329 3.723675-2.9562 5.542875-0.767475 1.42125-1.392825 2.89935-2.274 4.206899a58.640769 58.640769 0 0 1-7.134674 8.726475l-170.521557 170.521557a56.849994 56.849994 0 1 1-80.385892-80.385892L829.214013 156.950078H540.074943a56.849994 56.849994 0 0 1 0-113.699988h289.13907l-73.507043-73.507043a56.849994 56.849994 0 1 1 80.385892-80.385891l170.521557 170.521557c2.643525 2.643525 5.031224 5.571299 7.134674 8.726474z"  horiz-adv-x="1024" />

    
    <glyph glyph-name="exit" unicode="&#59067;" d="M995.555556 440.888889l-174.222223 202.666667-28.444444 32c-14.222222 21.333333-60.444444 32-92.444445 7.111111s-24.888889-56.888889-21.333333-71.111111c2.389333-9.614222 14.222222-21.333333 21.333333-28.444445l128.056889-142.222222H343.921778c-25.742222 0-59.477333-21.333333-59.477334-56.888889s33.735111-56.888889 59.477334-56.888889H824.888889l-135.111111-152.888889c-17.777778-17.777778-24.888889-64 7.111111-88.888889s67.555556-14.222222 92.444444 10.666667l28.444445 28.444444L995.555556 327.111111s28.444444 24.888889 28.444444 56.888889c0 35.555556-28.444444 56.888889-28.444444 56.888889zM540.444444 17.436444H160.312889A46.506667 46.506667 0 0 0 113.777778 64V704c0 25.685333 20.764444 46.535111 46.535111 46.535111H540.444444c25.713778 0 56.888889 21.020444 56.888889 60.131556 0 35.555556-31.175111 56.888889-56.888889 56.888889H139.633778C62.492444 867.555556 0 802.474667 0 725.333333v-682.040889C0-33.792 62.492444-99.555556 139.633778-99.555556H540.444444c25.713778 0 56.888889 21.333333 56.888889 56.888889s-31.175111 60.103111-56.888889 60.103111z"  horiz-adv-x="1024" />

    
    <glyph glyph-name="text_4" unicode="&#59064;" d="M426.666667 384H256a56.888889 56.888889 0 0 1 0-113.777778h170.666667a56.888889 56.888889 0 0 1 0 113.777778zM597.333333 611.555556H256a56.888889 56.888889 0 0 1 0-113.777778h341.333333a56.888889 56.888889 0 0 1 0 113.777778zM881.777778 384h-28.444445V759.096889C853.333333 833.308444 788.195556 896 711.111111 896H142.222222C66.474667 896 0 829.525333 0 753.777778v-739.555556c0-75.747556 66.474667-142.222222 142.222222-142.222222h739.555556c75.747556 0 142.222222 66.474667 142.222222 142.222222v227.555556c0 75.747556-66.474667 142.222222-142.222222 142.222222z m28.444444-369.777778c0-12.743111-15.701333-28.444444-28.444444-28.444444H142.222222c-12.743111 0-28.444444 15.701333-28.444444 28.444444V753.777778c0 12.743111 15.701333 28.444444 28.444444 28.444444h568.888889c13.824 0 28.444444-11.889778 28.444445-23.125333V99.555556a56.888889 56.888889 0 0 1 113.777777 0v170.666666h28.444445c12.743111 0 28.444444-15.701333 28.444444-28.444444v-227.555556z"  horiz-adv-x="1024" />

    
    <glyph glyph-name="text_5" unicode="&#59065;" d="M950.442667 680.220444l-199.111111 199.111112A56.888889 56.888889 0 0 1 711.111111 896H170.666667C107.918222 896 56.888889 844.970667 56.888889 782.222222v-796.444444c0-62.748444 51.029333-113.777778 113.777778-113.777778h682.666666c62.748444 0 113.777778 51.029333 113.777778 113.777778V640a56.888889 56.888889 0 0 1-16.668444 40.220444zM801.336889 668.444444H739.555556V730.225778L801.336889 668.444444zM170.666667-14.222222V782.222222h455.111111v-170.666666a56.888889 56.888889 0 0 1 56.888889-56.888889h170.666666l0.085334-568.888889H170.666667zM341.333333 327.111111h341.333334a56.888889 56.888889 0 0 1 0 113.777778H341.333333a56.888889 56.888889 0 0 1 0-113.777778zM682.666667 241.777778H341.333333a56.888889 56.888889 0 0 1 0-113.777778h341.333334a56.888889 56.888889 0 0 1 0 113.777778zM341.333333 526.222222h113.777778a56.888889 56.888889 0 0 1 0 113.777778h-113.777778a56.888889 56.888889 0 0 1 0-113.777778z"  horiz-adv-x="1024" />

    
    <glyph glyph-name="revocation" unicode="&#59066;" d="M284.444444-14.222222H170.666667c-27.619556 0-56.888889 28.444444-56.888889 56.888889V725.333333c0 28.444444 28.444444 56.888889 56.888889 56.888889h625.777777c28.416 0 56.888889-28.444444 56.888889-56.888889v-227.555555a56.888889 56.888889 0 0 1 56.888889-56.888889c31.288889 0 56.888889 25.6 56.888889 56.888889V782.222222c0 56.888889-56.888889 113.777778-113.777778 113.777778H113.777778C56.888889 896 0 839.111111 0 782.222222v-796.444444c0-56.888889 57.742222-113.777778 113.777778-113.777778h170.666666a56.888889 56.888889 0 1 1 0 113.777778zM256 668.444444c-28.444444 0-56.888889-25.6-56.888889-56.888888 0-31.601778 28.444444-56.888889 56.888889-56.888889h455.111111c28.444444 0 56.888889 25.287111 56.888889 56.888889 0 31.288889-28.444444 56.888889-56.888889 56.888888H256zM369.777778 469.333333H256c-31.573333 0-56.888889-25.344-56.888889-56.888889s25.315556-56.888889 56.888889-56.888888h113.777778a56.888889 56.888889 0 0 1 0 113.777777zM796.444444 327.111111h-147.114666l45.112889 45.112889a56.888889 56.888889 0 1 1-80.440889 80.440889l-142.193778-142.193778a57.258667 57.258667 0 0 1-7.139556-8.732444c-0.881778-1.336889-1.507556-2.816-2.275555-4.209778-0.995556-1.820444-2.104889-3.612444-2.958222-5.546667-0.739556-1.848889-1.194667-3.783111-1.763556-5.688889-0.483556-1.649778-1.109333-3.214222-1.479111-4.920889a57.543111 57.543111 0 0 1 0-22.272c0.369778-1.706667 0.995556-3.271111 1.479111-4.920888 0.568889-1.905778 0.995556-3.84 1.763556-5.688889 0.824889-1.934222 1.934222-3.726222 2.958222-5.546667 0.768-1.422222 1.393778-2.901333 2.275555-4.209778 2.104889-3.128889 4.494222-6.087111 7.139556-8.732444l142.193778-142.193778c11.121778-11.150222 25.656889-16.696889 40.220444-16.696889s29.098667 5.546667 40.220445 16.668445a56.888889 56.888889 0 0 1 0 80.440888L649.329778 213.333333H796.444444c62.748444 0 113.777778-51.029333 113.777778-113.777777s-51.029333-113.777778-113.777778-113.777778H512a56.888889 56.888889 0 0 1 0-113.777778h284.444444c125.468444 0 227.555556 102.087111 227.555556 227.555556s-102.087111 227.555556-227.555556 227.555555z"  horiz-adv-x="1024" />

    
    <glyph glyph-name="download_4" unicode="&#59030;" d="M455.111111-14.222222H142.222222c-13.027556 0-28.444444 15.416889-28.444444 28.444444V753.777778c0 13.027556 15.416889 28.444444 28.444444 28.444444h85.333334v-341.333333l113.777777 113.777778 113.777778-113.777778V782.222222h369.777778c13.027556 0 28.444444-15.416889 28.444444-28.444444v-256a56.888889 56.888889 0 0 1 113.777778 0V753.777778c0 75.747556-66.474667 142.222222-142.222222 142.222222H142.222222C66.474667 896 0 829.525333 0 753.777778v-739.555556c0-75.747556 66.474667-142.222222 142.222222-142.222222h312.888889a56.888889 56.888889 0 0 1 0 113.777778zM1007.331556 139.776a56.888889 56.888889 0 0 1-80.440889 0L853.333333 66.218667V327.111111a56.888889 56.888889 0 0 1-113.777777 0v-260.892444l-73.557334 73.557333a56.888889 56.888889 0 1 1-80.440889-80.440889l170.666667-170.666667c11.121778-11.121778 25.656889-16.668444 40.220444-16.668444s29.098667 5.546667 40.220445 16.668444l170.666667 170.666667a56.888889 56.888889 0 0 1 0 80.440889z"  horiz-adv-x="1024" />

    
    <glyph glyph-name="command_" unicode="&#59045;" d="M992.824889 758.357333a37.774222 37.774222 0 0 1-27.079111 22.983111L439.608889 895.175111a37.973333 37.973333 0 0 1-39.054222-15.388444 38.030222 38.030222 0 0 1-0.768-42.069334l216.632889-337.464889-49.379556-72.561777c-26.965333 19.427556-75.633778 27.505778-152.490667 38.599111-46.648889 6.684444-99.299556 14.392889-120.234666 24.746666L224.256 529.066667a37.916444 37.916444 0 0 1-30.378667 1.393777 38.001778 38.001778 0 0 1-21.532444-21.475555L31.061333 149.048889a38.001778 38.001778 0 0 1 18.403556-47.843556l435.598222-218.993777c0.398222-0.142222 1.024-0.512 1.137778-0.512 13.255111-6.570667 27.249778-9.699556 41.102222-9.699556 51.256889 0 64.028444 23.182222 235.918222 258.844444 23.836444 27.960889 39.310222 68.551111 33.109334 105.898667a34.901333 34.901333 0 0 1-0.995556 4.437333c-9.216 31.914667-37.518222 58.424889-65.877333 73.045334l-14.108445 6.940444 273.720889 401.720889c7.054222 10.467556 8.419556 23.722667 3.754667 35.470222zM215.552 466.659556l48.213333-23.950223-127.431111-324.608-48.270222 23.950223 127.488 324.608z m492.316444-315.989334l-57.315555 29.866667c-43.349333 15.701333-62.663111-32.967111-25.799111-53.816889l49.607111-32.028444c-10.865778-15.274667-34.133333-46.279111-44.714667-60.757334l-47.530666 32.056889c-19.313778 12.060444-34.190222 9.699556-46.222223-9.642667-12.032-19.370667-0.853333-34.133333 18.432-46.193777l34.588445-26.680889-32.312889-44.572445s-10.183111-16.384-31.488-10.040889l-0.824889 0.426667c-0.113778 0-0.256 0.142222-0.398222 0.142222L184.007111 93.354667l132.152889 338.005333c25.827556-5.091556 52.821333-11.008 82.375111-15.246222 41.386667-5.944889 107.576889-14.165333 126.065778-24.263111 23.552-40.647111 60.387556-58.794667 63.829333-61.041778 1.223111-0.824889 2.616889-1.507556 3.868445-2.190222l124.302222-75.633778c9.585778-4.949333 22.584889-16.355556 26.680889-28.472889 4.010667-33.848889-41.841778-83.456-35.413334-73.841778z m-47.672888 199.537778l-54.357334 34.304 69.802667 93.610667c9.386667 13.824 9.671111 31.829333 0.568889 45.795555L480.284444 828.103111 920.348444 727.893333 660.195556 350.208z m0.739555 0.170667"  horiz-adv-x="1024" />

    
    <glyph glyph-name="people_15" unicode="&#59063;" d="M910.222222 753.777778c0 37.688889-47.900444 85.333333-85.333333 85.333333H199.111111C161.678222 839.111111 113.777778 791.466667 113.777778 753.777778v-654.222222c0-37.688889 47.900444-85.333333 85.333333-85.333334h312.888889v-56.888889l-319.488 0.227556C117.617778-42.439111 56.888889 18.659556 56.888889 94.065778V759.495111C56.888889 834.901333 117.617778 896 192.512 896h638.748444C906.154667 896 967.111111 829.155556 967.111111 753.777778v-483.555556h-56.888889V753.777778zM312.888889 128.142222H255.573333c8.96 80.213333 57.742222 152.263111 128.512 193.223111a255.146667 255.146667 0 0 0 255.516445 0.056889c1.877333-1.080889 3.527111-2.474667 5.376-3.612444l-41.272889-41.187556a197.063111 197.063111 0 0 1-91.790222 22.613334c-100.181333 0-185.514667-74.439111-199.025778-171.093334zM512.312889 384a170.752 170.752 0 0 0-85.532445 318.606222 172.174222 172.174222 0 0 0 170.894223 0.028445A170.353778 170.353778 0 0 0 682.666667 554.695111 170.296889 170.296889 0 0 0 512.312889 384zM512 668.444444a113.777778 113.777778 0 1 1 0-227.555555 113.777778 113.777778 0 0 1 0 227.555555z m455.111111-540.330666c0-15.786667-12.743111-28.558222-28.472889-28.558222H628.053333a29.610667 29.610667 0 0 0-12.544 2.104888 29.724444 29.724444 0 0 0-9.500444 48.298667l83.569778 84.024889a29.553778 29.553778 0 0 0 40.561777-1.28 29.866667 29.866667 0 0 0 1.223112-40.732444L696.234667 156.444444h242.403555a28.302222 28.302222 0 0 0 28.472889-28.330666z m-341.276444-113.92h310.584889c4.266667 0.199111 8.561778-0.540444 12.544-2.104889 9.045333-3.811556 15.672889-11.690667 17.578666-21.304889 1.905778-9.671111-1.137778-19.598222-8.078222-26.567111l-82.744889-83.569778a29.639111 29.639111 0 0 0-41.870222 0 29.468444 29.468444 0 0 0 0 41.728l35.185778 35.100445h-243.228445a28.359111 28.359111 0 0 0 0.028445 56.718222z"  horiz-adv-x="1024" />

    
    <glyph glyph-name="maximize" unicode="&#59200;" d="M910.222222 896h-227.555555a56.888889 56.888889 0 0 1 0-113.777778h147.114666l-244.224-244.224a56.888889 56.888889 0 1 1 80.440889-80.440889L910.222222 701.781333V554.666667a56.888889 56.888889 0 0 1 113.777778 0V782.222222c0 62.748444-51.029333 113.777778-113.777778 113.777778zM358.001778 310.442667L113.777778 66.218667V213.333333a56.888889 56.888889 0 0 1-113.777778 0v-227.555555c0-62.748444 51.029333-113.777778 113.777778-113.777778h227.555555a56.888889 56.888889 0 0 1 0 113.777778H194.218667l244.224 244.224a56.888889 56.888889 0 1 1-80.440889 80.440889z"  horiz-adv-x="1024" />

    
    <glyph glyph-name="minimize" unicode="&#59201;" d="M370.225548 355.925057H142.825572a56.849994 56.849994 0 0 1 0-113.699988h147.014084L17.357635-30.256953a56.849994 56.849994 0 1 1 80.385891-80.385891L370.225548 161.839177V14.825093a56.849994 56.849994 0 0 1 113.699988 0v227.399976c0 62.705543-50.994445 113.699988-113.699988 113.699988zM1007.343431 879.342952a56.849994 56.849994 0 0 1-80.385892 0L654.475518 606.86093V753.875015a56.849994 56.849994 0 0 1-113.699988 0v-227.399976c0-62.705543 50.994445-113.699988 113.699988-113.699988h227.399976a56.849994 56.849994 0 0 1 0 113.699988h-147.014085l272.482022 272.482021a56.849994 56.849994 0 0 1 0 80.385892z"  horiz-adv-x="1024" />

    
    <glyph glyph-name="copy" unicode="&#59202;" d="M853.333333 668.444444h-56.888889V725.333333c0 94.122667-76.544 170.666667-170.666666 170.666667H170.666667C76.544 896 0 819.456 0 725.333333v-455.111111c0-94.122667 76.544-170.666667 170.666667-170.666666h56.888889v-56.888889c0-94.122667 76.544-170.666667 170.666666-170.666667h455.111111c94.122667 0 170.666667 76.544 170.666667 170.666667V497.777778c0 94.122667-76.544 170.666667-170.666667 170.666666zM170.666667 213.333333c-31.374222 0-56.888889 25.514667-56.888889 56.888889V725.333333c0 31.374222 25.514667 56.888889 56.888889 56.888889h455.111111c31.374222 0 56.888889-25.514667 56.888889-56.888889v-56.888889H398.222222c-94.122667 0-170.666667-76.544-170.666666-170.666666v-284.444445H170.666667z m739.555555-170.666666c0-31.374222-25.514667-56.888889-56.888889-56.888889H398.222222c-31.374222 0-56.888889 25.514667-56.888889 56.888889V497.777778c0 31.374222 25.514667 56.888889 56.888889 56.888889h455.111111c31.374222 0 56.888889-25.514667 56.888889-56.888889v-455.111111zM753.777778 327.111111H682.666667v85.333333a56.888889 56.888889 0 0 1-113.777778 0v-85.333333h-71.111111a56.888889 56.888889 0 0 1 0-113.777778H568.888889v-85.333333a56.888889 56.888889 0 0 1 113.777778 0v85.333333h71.111111a56.888889 56.888889 0 0 1 0 113.777778z"  horiz-adv-x="1024" />

    
    <glyph glyph-name="backward_" unicode="&#58997;" d="M768 384L256 896v-1024z"  horiz-adv-x="1024" />

    
    <glyph glyph-name="forward_" unicode="&#59106;" d="M256 384l512-512V896z"  horiz-adv-x="1024" />

    
    <glyph glyph-name="video" unicode="&#59140;" d="M853.333333 896H170.666667C76.544 896 0 819.456 0 725.333333v-682.666666c0-94.122667 76.544-170.666667 170.666667-170.666667h682.666666c94.122667 0 170.666667 76.544 170.666667 170.666667V725.333333c0 94.122667-76.544 170.666667-170.666667 170.666667z m56.888889-170.666667v-56.888889h-50.176l-56.888889 113.777778H853.333333c31.374222 0 56.888889-25.514667 56.888889-56.888889zM348.046222 668.444444l-56.888889 113.777778h128.768l56.888889-113.777778h-128.768z m256 0l-56.888889 113.777778h128.768l56.888889-113.777778h-128.768zM164.266667 781.596444L220.842667 668.444444H113.777778V725.333333c0 29.155556 22.158222 52.992 50.488889 56.263111zM853.333333-14.222222H170.666667c-31.374222 0-56.888889 25.514667-56.888889 56.888889V554.666667h796.444444v-512c0-31.374222-25.514667-56.888889-56.888889-56.888889zM628.878222 317.553778l-170.666666 113.777778a57.031111 57.031111 0 0 1-58.396445 2.844444A56.945778 56.945778 0 0 1 369.777778 384v-227.555556a56.945778 56.945778 0 0 1 56.888889-56.888888c11.036444 0 22.044444 3.214222 31.544889 9.557333l170.666666 113.777778a56.832 56.832 0 0 1 0 94.663111z"  horiz-adv-x="1024" />

    
    <glyph glyph-name="picture" unicode="&#59199;" d="M853.333333 839.111111H170.666667C76.544 839.111111 0 762.567111 0 668.444444v-568.888888c0-0.682667 0.113778-1.365333 0.113778-2.048l0.085333-1.621334C2.161778 3.470222 77.795556-71.111111 170.666667-71.111111h682.666666c94.122667 0 170.666667 76.544 170.666667 170.666667V668.444444c0 94.122667-76.544 170.666667-170.666667 170.666667zM170.666667 725.333333h682.666666c31.374222 0 56.888889-25.514667 56.888889-56.888889v-244.423111l-133.205333 116.565334a56.974222 56.974222 0 0 1-81.180445-6.4l-251.733333-302.051556-128.142222 85.418667a56.917333 56.917333 0 0 1-65.706667-1.820445L113.777778 213.333333V668.444444c0 31.374222 25.514667 56.888889 56.888889 56.888889z m682.666666-682.666666H170.666667a56.888889 56.888889 0 0 0-51.285334 32.654222l166.997334 125.212444 137.159111-91.448889a56.860444 56.860444 0 0 1 75.264 10.922667l247.125333 296.561778L910.222222 272.867556V99.555556c0-31.374222-25.514667-56.888889-56.888889-56.888889zM312.888889 526.222222m-113.777778 0a113.777778 113.777778 0 1 1 227.555556 0 113.777778 113.777778 0 1 1-227.555556 0Z"  horiz-adv-x="1024" />

    
    <glyph glyph-name="voice" unicode="&#59192;" d="M512 213.333333c109.767111 0 199.111111 89.344 199.111111 199.111111V696.888889c0 109.795556-89.344 199.111111-199.111111 199.111111-109.795556 0-199.111111-89.315556-199.111111-199.111111v-284.444445c0-109.767111 89.315556-199.111111 199.111111-199.111111zM426.666667 696.888889c0 47.047111 38.286222 85.333333 85.333333 85.333333s85.333333-38.286222 85.333333-85.333333v-284.444445c0-47.047111-38.286222-85.333333-85.333333-85.333333s-85.333333 38.286222-85.333333 85.333333V696.888889zM910.222222 440.888889a56.888889 56.888889 0 0 1-113.777778 0c0-188.757333-95.687111-284.444444-284.444444-284.444445S227.555556 252.131556 227.555556 440.888889a56.888889 56.888889 0 0 1-113.777778 0c0-233.386667 123.676444-374.670222 341.333333-395.292445V-14.222222h-142.222222a56.888889 56.888889 0 0 1 0-113.777778h398.222222a56.888889 56.888889 0 0 1 0 113.777778h-142.222222v59.818666c217.656889 20.622222 341.333333 161.905778 341.333333 395.292445z"  horiz-adv-x="1024" />

    
    <glyph glyph-name="viewtarget1" unicode="&#59195;" d="M398.222222 782.222222h227.555556a56.888889 56.888889 0 0 1 0 113.777778h-227.555556a56.888889 56.888889 0 1 1 0-113.777778zM854.613333 839.111111H739.555556v-113.777778h58.794666C829.383111 725.333333 853.333333 699.875556 853.333333 668.444444v-113.777777a56.888889 56.888889 0 0 1 113.777778 0V725.333333c0 62.776889-50.403556 113.777778-112.497778 113.777778zM284.444444-14.222222H227.555556c-31.061333 0-58.168889 25.457778-58.168889 56.888889V668.444444c0 31.431111 25.173333 56.888889 56.234666 56.888889H284.444444V839.111111H169.386667C107.264 839.111111 56.888889 788.110222 56.888889 725.333333v-739.555555c0-62.776889 50.375111-113.777778 112.497778-113.777778H284.444444a56.888889 56.888889 0 0 1 0 113.777778zM806.030222 113.521778A282.510222 282.510222 0 0 1 853.333333 270.222222c0 156.842667-127.601778 284.444444-284.444444 284.444445s-284.444444-127.601778-284.444445-284.444445 127.601778-284.444444 284.444445-284.444444a282.510222 282.510222 0 0 1 156.700444 47.303111l144.412445-144.412445c11.121778-11.121778 25.656889-16.668444 40.220444-16.668444s29.098667 5.546667 40.220445 16.668444a56.888889 56.888889 0 0 1 0 80.440889l-144.412445 144.412445zM398.222222 270.222222c0 94.122667 76.544 170.666667 170.666667 170.666667s170.666667-76.544 170.666667-170.666667-76.544-170.666667-170.666667-170.666666-170.666667 76.544-170.666667 170.666666z"  horiz-adv-x="1024" />

    
    <glyph glyph-name="download_3" unicode="&#59196;" d="M815.445333 896H208.497778C93.553778 896 0 802.446222 0 687.473778v-606.748445C0-34.360889 93.553778-128 208.497778-128h606.947555C930.446222-128 1024-34.360889 1024 80.725333V687.473778C1024 802.446222 930.446222 896 815.445333 896zM208.497778 782.222222h606.947555A94.862222 94.862222 0 0 0 910.222222 687.473778V128h-256c0-78.819556-63.601778-142.222222-142.222222-142.222222-78.677333 0-142.222222 63.402667-142.222222 142.222222H113.777778V687.473778A94.833778 94.833778 0 0 0 208.497778 782.222222zM471.779556 173.112889c11.121778-11.121778 25.656889-16.668444 40.220444-16.668445s29.098667 5.546667 40.220444 16.668445l170.666667 170.666667a56.888889 56.888889 0 1 1-80.440889 80.440888L568.888889 350.663111V611.555556a56.888889 56.888889 0 0 1-113.777778 0v-260.892445l-73.557333 73.557333a56.888889 56.888889 0 1 1-80.440889-80.440888l170.666667-170.666667z"  horiz-adv-x="1024" />

    
    <glyph glyph-name="follow" unicode="&#59197;" d="M725.333333 839.111111c-81.550222 0-157.980444-57.088-213.333333-113.578667C456.647111 782.023111 380.216889 839.111111 298.666667 839.111111 134.001778 839.111111 0 705.365333 0 540.984889c0-6.001778 1.052444-148.508444 92.615111-274.659556 78.222222-107.832889 143.672889-160.682667 212.935111-216.689777 119.381333-96.483556 181.902222-114.830222 193.194667-117.560889L512-71.111111l13.255111 3.157333c11.292444 2.730667 73.813333 21.077333 193.194667 117.560889 69.290667 56.007111 134.712889 108.856889 212.935111 216.689778C1022.947556 392.476444 1024 534.983111 1024 540.984889 1024 705.365333 889.998222 839.111111 725.333333 839.111111z m113.948445-506.197333c-66.048-90.993778-116.167111-133.376-192.398222-194.986667-68.778667-55.580444-113.550222-79.985778-134.883556-89.799111-21.333333 9.841778-66.104889 34.218667-134.883556 89.799111-76.231111 61.610667-126.321778 103.992889-192.398222 194.986667C115.456 428.430222 113.777778 540.074667 113.777778 540.984889c0 101.774222 82.944 184.547556 184.888889 184.547555 70.030222 0 157.041778-55.125333 186.823111-123.136a28.16 28.16 0 0 1 26.510222-18.830222c12.145778 0 22.357333 7.68 26.424889 18.375111 36.238222 71.594667 116.707556 123.591111 186.908444 123.591111 101.944889 0 184.888889-82.773333 184.888889-184.32 0-1.137778-1.678222-112.782222-70.940444-208.298666z"  horiz-adv-x="1024" />

    
    <glyph glyph-name="unfollow1" unicode="&#59198;" d="M909.801692 556.853223c0.511763-5.430379 0-10.946052 0-16.490155 0-1.108821-1.677447-112.929135-70.90767-208.543607-66.017485-91.122326-116.113441-133.570261-192.309332-195.266188-68.74689-55.64006-113.497761-80.062549-134.821238-89.89978a378.761817 378.761817 0 0 0-33.548938 17.88329l-55.298884-99.253678c28.431303-18.622503 67.922383-32.980311 75.598834-34.856778l13.248988-3.184306 13.248987 3.155875c11.287227 2.729405 73.779231 21.124458 193.105409 117.734025 69.258654 56.066529 134.65065 109.005615 212.836733 216.987704C1022.474945 391.439903 1023.526903 534.136612 1023.526903 540.135617c0 17.769564 0 27.095032-8.529391 43.983226l-105.19582-27.26562zM170.559386-128a56.862606 56.862606 0 0 0-42.76068 94.306632l796.076481 909.77326a56.862606 56.862606 0 1 0 85.606653-74.85962l-796.076481-909.830123c-11.287227-12.822518-27.009738-19.390149-42.845973-19.390149zM966.664297 554.948326m-56.862605 0a56.862606 56.862606 0 1 1 113.725211 0 56.862606 56.862606 0 1 1-113.725211 0ZM657.473879 824.448646c-39.093041 0-113.725211-56.862606-145.710427-99.50956-46.200867 56.862606-124.38695 113.725211-213.234772 113.725211C133.939868 838.664297 0 704.72443 0 540.135617c0-5.999005 1.051958-148.695714 92.572322-275.015992 24.678371-34.089132 42.476366-62.605729 70.737082-86.061554l32.155803 37.671476 42.646954 47.622433c-21.323477 23.455825-27.748952 31.956784-53.47928 67.467481C115.402658 427.433933 113.725211 539.254247 113.725211 540.135617 113.725211 642.033407 196.630891 724.939086 298.52868 724.939086c67.495913 0 152.818253-49.75478 186.907385-124.273225 4.236264-10.434288 14.357808-17.88329 26.327387-17.883289s22.091122 7.449001 26.327386 17.883289c23.427394 49.641055 75.570403 98.457602 130.044779 111.479139l-10.661738 112.303646M657.473879 767.58604m-56.862606 0a56.862606 56.862606 0 1 1 113.725211 0 56.862606 56.862606 0 1 1-113.725211 0ZM202.573033 220.28346m-56.862606 0a56.862606 56.862606 0 1 1 113.725212 0 56.862606 56.862606 0 1 1-113.725212 0ZM451.489089 14.156514m-56.862605 0a56.862606 56.862606 0 1 1 113.725211 0 56.862606 56.862606 0 1 1-113.725211 0Z"  horiz-adv-x="1024" />

    
    <glyph glyph-name="service" unicode="&#59193;" d="M998.513778 712.533333c-17.294222-19.399111-40.334222-44.231111-81.607111-81.92C881.777778 611.555556 811.776 596.394667 768 640c-43.776 43.633778-28.444444 113.777778-6.456889 143.928889 33.507556 45.966222 83.655111 83.399111 83.000889 83.598222-118.727111 52.423111-260.437333 33.052444-357.034667-63.175111-88.035556-87.694222-113.180444-213.930667-76.088889-324.039111L39.082667 109.340444c-55.068444-54.840889-49.038222-150.897778 0-198.513777 49.749333-48.469333 144.270222-54.869333 199.281777 0l372.366223 370.972444c110.506667-36.949333 237.226667-11.861333 325.233777 75.776 96.455111 96.113778 107.690667 241.208889 62.549334 354.958222zM597.333333 412.444444l-121.998222-118.158222h-0.056889l-41.500444-41.329778-7.111111-7.025777L191.317333 14.222222c-22.926222-22.840889-49.095111-28.444444-66.218666-15.132444-14.904889 11.605333-5.831111 49.180444 17.123555 72.021333l398.222222 398.222222c-85.333333 170.666667 56.888889 284.444444 113.777778 312.888889-28.444444-85.333333-33.735111-175.559111 18.232889-235.491555C739.555556 469.333333 881.777778 497.777778 910.222222 526.222222c-4.494222-21.987556-96-227.555556-312.888889-113.777778z"  horiz-adv-x="1024" />

    
    <glyph glyph-name="promptfailure" unicode="&#59194;" d="M512 896C229.233778 896 0 666.766222 0 384.028444 0 101.262222 229.233778-128 512-128s512 229.262222 512 512.028444C1024 666.766222 794.766222 896 512 896z m211.626667-646.656a54.328889 54.328889 0 0 0 0-76.942222 54.328889 54.328889 0 0 0-76.942223 0l-134.656 134.656-134.684444-134.656a54.414222 54.414222 0 1 0-76.942222 76.942222L435.086222 384l-134.684444 134.627556a54.442667 54.442667 0 0 0 76.942222 76.970666l134.684444-134.656 134.656 134.656a54.414222 54.414222 0 1 0 76.942223-76.970666L588.970667 384l134.656-134.656z"  horiz-adv-x="1024" />

    
    <glyph glyph-name="callstart" unicode="&#59182;" d="M775.253333 355.185778c-85.731556 0-137.415111-55.466667-173.795555-127.971556C489.813333 284.615111 418.133333 351.402667 369.777778 469.333333c81.265778 32.881778 113.777778 56.888889 113.777778 198.968889C483.555556 806.343111 370.403556 896 248.746667 896 142.705778 896 28.444444 806.513778 28.444444 696.746667c0-109.710222 0.369778-29.525333 0.455112-32.113778 3.043556-409.628444 308.110222-746.069333 700.387555-791.665778 15.018667-3.157333 124.046222-1.621333 124.046222 55.296s-68.238222 56.917333-111.473777 56.917333c-71.936 7.822222-128.910222 22.215111-168.533334 37.546667l0.085334-0.170667c-1.109333 0.483556-2.190222 0.910222-3.242667 1.422223a413.354667 413.354667 0 0 0-40.704 18.147555C366.592 117.788444 266.496 233.784889 199.111111 403.086222c-11.292444 24.263111-56.064 116.878222-57.059555 257.336889 0 0 0.170667 121.742222 113.948444 121.742222 72.846222 0 113.777778-56.945778 113.777778-112.270222 0-73.244444-3.669333-107.264-66.56-117.504l-0.142222-0.597333c-71.424 0-43.576889-96.881778-42.979556-96.881778 56.291556-151.694222 184.775111-266.609778 327.992889-335.616l-0.085333-1.422222 0.085333 0.170666 27.932444-11.946666a43.690667 43.690667 0 0 1 60.472889 14.791111c3.868444 6.627556 5.745778 13.795556 6.144 20.878222 15.672889 56.064 33.137778 99.584 93.326222 99.584 77.368889 0 105.813333-68.437333 105.813334-142.336 0-2.247111 0-85.390222 56.888889-85.390222 28.444444 0 56.888889 38.456889 56.888889 78.222222 0 123.562667-42.296889 263.338667-220.302223 263.338667z"  horiz-adv-x="1024" />

    
    <glyph glyph-name="bell_" unicode="&#59183;" d="M746.808889 355.185778c-85.731556 0-137.415111-55.466667-173.795556-127.971556C461.368889 284.615111 389.688889 351.402667 341.333333 469.333333c81.265778 32.881778 113.777778 56.888889 113.777778 198.968889C455.111111 806.343111 341.959111 896 220.302222 896 114.261333 896 0 806.513778 0 696.746667c0-109.710222 0.369778-29.525333 0.455111-32.113778 3.043556-409.628444 308.110222-746.069333 700.387556-791.665778 15.018667-3.157333 124.046222-1.621333 124.046222 55.296s-68.238222 56.917333-111.473778 56.917333c-71.936 7.822222-128.910222 22.215111-168.533333 37.546667l0.085333-0.170667c-1.109333 0.483556-2.190222 0.910222-3.242667 1.422223a413.354667 413.354667 0 0 0-40.704 18.147555C338.147556 117.788444 238.051556 233.784889 170.666667 403.086222c-11.292444 24.263111-56.064 116.878222-57.059556 257.336889 0 0 0.170667 121.742222 113.948445 121.742222 72.846222 0 113.777778-56.945778 113.777777-112.270222 0-73.244444-3.669333-107.264-66.56-117.504l-0.142222-0.597333c-71.424 0-43.576889-96.881778-42.979555-96.881778 56.291556-151.694222 184.775111-266.609778 327.992888-335.616l-0.085333-1.422222 0.085333 0.170666 27.932445-11.946666a43.690667 43.690667 0 0 1 60.472889 14.791111c3.868444 6.627556 5.745778 13.795556 6.144 20.878222 15.672889 56.064 33.137778 99.584 93.326222 99.584 77.368889 0 105.813333-68.437333 105.813333-142.336 0-2.247111 0-85.390222 56.888889-85.390222 28.444444 0 56.888889 38.456889 56.888889 78.222222 0 123.562667-42.296889 263.338667-220.302222 263.338667zM592.782222 626.602667l162.503111-140.714667a58.026667 58.026667 0 0 1 81.180445 0 55.751111 55.751111 0 0 1 0 79.900444L768 611.555556h199.111111c31.772444 0 56.888889 25.770667 56.888889 56.888888 0 31.260444-25.116444 56.888889-56.888889 56.888889h-199.111111l68.494222 45.937778a55.751111 55.751111 0 0 1 0 79.815111 58.254222 58.254222 0 0 1-81.180444 0l-161.251556-131.214222C591.246222 717.852444 568.888889 696.888889 568.888889 668.444444s21.447111-40.078222 23.893333-41.841777z"  horiz-adv-x="1024" />

    
    <glyph glyph-name="promptsuccess" unicode="&#59184;" d="M512 896C229.205333 896 0 666.766222 0 384.028444 0 101.262222 229.205333-128 512-128s512 229.262222 512 512.028444C1024 666.766222 794.766222 896 512 896z m301.511111-376.206222L487.253333 172.145778a51.256889 51.256889 0 0 0-71.480889-2.360889l-200.362666 177.066667a54.698667 54.698667 0 0 0-4.807111 75.804444A51.427556 51.427556 0 0 0 284.444444 427.576889l163.555556-143.815111L739.555556 595.797333a51.285333 51.285333 0 0 0 73.955555 0 54.812444 54.812444 0 0 0 0-76.003555z"  horiz-adv-x="1024" />

    
    <glyph glyph-name="bell_1" unicode="&#59185;" d="M746.808889 355.185778c-85.731556 0-137.415111-55.466667-173.795556-127.971556C461.368889 284.615111 389.688889 351.402667 341.333333 469.333333c81.265778 32.881778 113.777778 56.888889 113.777778 198.968889C455.111111 806.343111 341.959111 896 220.302222 896 114.261333 896 0 806.513778 0 696.746667c0-109.710222 0.369778-29.525333 0.455111-32.113778 3.043556-409.628444 308.110222-746.069333 700.387556-791.665778 15.018667-3.157333 124.046222-1.621333 124.046222 55.296s-68.238222 56.917333-111.473778 56.917333c-71.936 7.822222-128.910222 22.215111-168.533333 37.546667l0.085333-0.170667c-1.109333 0.483556-2.190222 0.910222-3.242667 1.422223a413.354667 413.354667 0 0 0-40.704 18.147555C338.147556 117.788444 238.051556 233.784889 170.666667 403.086222c-11.292444 24.263111-56.064 116.878222-57.059556 257.336889 0 0 0.170667 121.742222 113.948445 121.742222 72.846222 0 113.777778-56.945778 113.777777-112.270222 0-73.244444-3.669333-107.264-66.56-117.504l-0.142222-0.597333c-71.424 0-43.576889-96.881778-42.979555-96.881778 56.291556-151.694222 184.775111-266.609778 327.992888-335.616l-0.085333-1.422222 0.085333 0.170666 27.932445-11.946666a43.690667 43.690667 0 0 1 60.472889 14.791111c3.868444 6.627556 5.745778 13.795556 6.144 20.878222 15.672889 56.064 33.137778 99.584 93.326222 99.584 77.368889 0 105.813333-68.437333 105.813333-142.336 0-2.247111 0-85.390222 56.888889-85.390222 28.444444 0 56.888889 38.456889 56.888889 78.222222 0 123.562667-42.296889 263.338667-220.302222 263.338667zM535.893333 626.602667l162.503111-140.714667a58.026667 58.026667 0 0 1 81.180445 0 55.751111 55.751111 0 0 1 0 79.900444L711.111111 611.555556h199.111111c31.772444 0 56.888889 25.770667 56.888889 56.888888 0 31.260444-25.116444 56.888889-56.888889 56.888889h-199.111111l68.494222 45.937778a55.751111 55.751111 0 0 1 0 79.815111 58.254222 58.254222 0 0 1-81.180444 0l-161.251556-131.214222C534.357333 717.852444 512 696.888889 512 668.444444s21.447111-40.078222 23.893333-41.841777z"  horiz-adv-x="1024" />

    
    <glyph glyph-name="read_" unicode="&#59186;" d="M1023.715603 527.193912a56.452813 56.452813 0 0 1-1.421985 11.51808c-0.312837 1.336666-0.739432 2.588013-1.137588 3.89624a58.301394 58.301394 0 0 1-5.261346 12.172193c-0.597234 0.99539-0.96695 2.047659-1.621063 3.014609-0.881631 1.336666-2.019219 2.417375-2.986169 3.668722-0.96695 1.222907-1.87702 2.445815-2.957729 3.583403a54.376715 54.376715 0 0 1-7.593401 6.68333c-0.568794 0.426596-0.96695 0.99539-1.564184 1.393546l-455.035272 312.836749a56.879409 56.879409 0 0 1-64.44437 0L25.538855 573.778148l-0.881631-0.597234c-0.597234-0.398156-0.96695-0.93851-1.535744-1.365106-2.730212-1.990779-5.289785-4.209076-7.650281-6.71177-1.052269-1.137588-1.96234-2.360495-2.929289-3.583403-0.99539-1.251347-2.132978-2.332056-3.014609-3.668721-0.625673-0.96695-1.023829-2.019219-1.621063-3.014609a58.301394 58.301394 0 0 1-5.261345-12.172194c-0.398156-1.308226-0.824751-2.559573-1.137589-3.924679-0.853191-3.81092-1.365106-7.650281-1.421985-11.48964 0.02844-0.369716-0.085319-0.654113-0.085319-0.96695v-540.354386c0-62.737988 51.02083-113.758818 113.758818-113.758818h796.311726c62.737988 0 113.758818 51.02083 113.758818 113.758818V526.283842c0 0.312837-0.113759 0.597234-0.113759 0.91007zM113.758818 420.004666l217.023385-144.672777L113.758818 89.307782V420.004666z m398.155863-139.269233L855.864467-14.070544H167.964895L511.914681 280.735433z m398.212742-191.48453l-217.080264 186.080986L910.070544 420.033106l0.056879-330.782203zM511.914681 770.097428l353.590846-243.102594-262.185636-174.790424-54.376715 46.612676a56.850969 56.850969 0 0 1-74.05699 0l-54.376715-46.612676-262.185636 174.790424L511.914681 770.097428z"  horiz-adv-x="1024" />

    
    <glyph glyph-name="calling_" unicode="&#59187;" d="M746.808889 355.185778c-85.731556 0-137.415111-55.466667-173.795556-127.971556C461.368889 284.615111 389.688889 351.402667 341.333333 469.333333c81.265778 32.881778 113.777778 56.888889 113.777778 198.968889C455.111111 806.343111 341.959111 896 220.302222 896 114.261333 896 0 806.513778 0 696.746667c0-109.710222 0.369778-29.525333 0.455111-32.113778 3.043556-409.628444 308.110222-746.069333 700.387556-791.665778 15.018667-3.157333 124.046222-1.621333 124.046222 55.296s-68.238222 56.917333-111.473778 56.917333c-71.936 7.822222-128.910222 22.215111-168.533333 37.546667l0.085333-0.170667c-1.109333 0.483556-2.190222 0.910222-3.242667 1.422223a413.354667 413.354667 0 0 0-40.704 18.147555C338.147556 117.788444 238.051556 233.784889 170.666667 403.086222c-11.292444 24.263111-56.064 116.878222-57.059556 257.336889 0 0 0.170667 121.742222 113.948445 121.742222 72.846222 0 113.777778-56.945778 113.777777-112.270222 0-73.244444-3.669333-107.264-66.56-117.504l-0.142222-0.597333c-71.424 0-43.576889-96.881778-42.979555-96.881778 56.291556-151.694222 184.775111-266.609778 327.992888-335.616l-0.085333-1.422222 0.085333 0.170666 27.932445-11.946666a43.690667 43.690667 0 0 1 60.472889 14.791111c3.868444 6.627556 5.745778 13.795556 6.144 20.878222 15.672889 56.064 33.137778 99.584 93.326222 99.584 77.368889 0 105.813333-68.437333 105.813333-142.336 0-2.247111 0-85.390222 56.888889-85.390222 28.444444 0 56.888889 38.456889 56.888889 78.222222 0 123.562667-42.296889 263.338667-220.302222 263.338667zM625.777778 497.777778m-56.888889 0a56.888889 56.888889 0 1 1 113.777778 0 56.888889 56.888889 0 1 1-113.777778 0ZM654.222222 611.555556c47.047111 0 85.333333-38.286222 85.333334-85.333334a56.888889 56.888889 0 0 1 113.777777 0c0 109.767111-89.344 199.111111-199.111111 199.111111a56.888889 56.888889 0 0 1 0-113.777777z"  horiz-adv-x="1024" />

    
    <glyph glyph-name="share_2" unicode="&#59188;" d="M796.444444 327.111111a227.072 227.072 0 0 1-177.92-85.902222l-164.152888 70.855111c0.284444 4.977778 0.739556 9.955556 0.739555 15.018667 0 19.313778-2.673778 37.973333-7.196444 55.864889l182.357333 130.360888A226.673778 226.673778 0 0 1 796.444444 440.888889a227.555556 227.555556 0 1 1 0 455.111111c-125.667556 0-227.555556-101.916444-227.555555-227.555556 0-19.427556 2.702222-38.172444 7.281778-56.177777l-182.215111-130.275556A226.616889 226.616889 0 0 1 227.584 554.666667a227.584 227.584 0 0 1 0-455.111111 227.043556 227.043556 0 0 1 191.744 105.386666l153.173333-66.104889A228.977778 228.977778 0 0 1 568.888889 99.555556a227.555556 227.555556 0 1 1 455.111111 0 227.555556 227.555556 0 0 1-227.555556 227.555555z m0 455.111111a113.777778 113.777778 0 1 0 0-227.555555 113.777778 113.777778 0 0 0 0 227.555555zM227.555556 213.333333c-62.862222 0-113.777778 50.915556-113.777778 113.777778s50.915556 113.777778 113.777778 113.777778 113.777778-50.915556 113.777777-113.777778-50.915556-113.777778-113.777777-113.777778z m568.888888-227.555555c-62.862222 0-113.777778 50.915556-113.777777 113.777778s50.915556 113.777778 113.777777 113.777777 113.777778-50.915556 113.777778-113.777777-50.915556-113.777778-113.777778-113.777778z"  horiz-adv-x="1024" />

    
    <glyph glyph-name="hangup" unicode="&#59189;" d="M824.718222 867.555556c-109.710222 0-29.496889-0.369778-32.113778-0.455112C382.976 864.056889 46.535111 558.990222 0.967111 166.712889-2.218667 151.694222-0.682667 42.666667 56.234667 42.666667s56.917333 68.238222 56.917333 111.473777c7.822222 71.936 22.215111 128.910222 37.546667 168.533334l-0.170667-0.085334c0.483556 1.109333 0.910222 2.190222 1.422222 3.242667 6.599111 17.095111 13.027556 30.805333 18.147556 40.704C245.76 529.408 361.756444 629.504 531.057778 696.888889c24.291556 11.292444 116.878222 56.064 257.336889 57.059555 0 0 121.770667-0.170667 121.770666-113.948444 0-72.846222-56.945778-113.777778-112.270222-113.777778-73.272889 0-107.264 3.669333-117.504 66.56l-0.597333 0.142222c0 71.424-96.881778 43.576889-96.881778 42.979556-151.694222-56.291556-266.609778-184.775111-335.587556-327.992889l-1.422222 0.085333 0.170667-0.085333-11.946667-27.932444A43.690667 43.690667 0 0 1 269.767111 213.333333c56.064-15.672889 99.584-33.137778 99.584-93.326222C369.351111 42.666667 300.913778 14.222222 227.015111 14.222222c-2.247111 0-85.390222 0-85.390222-56.888889 0-28.444444 38.456889-56.888889 78.222222-56.888889 123.562667 0 263.338667 42.296889 263.338667 220.302223 0 85.731556-55.466667 137.415111-127.971556 173.795555C412.586667 406.186667 479.402667 477.866667 597.333333 526.222222c32.881778-81.265778 56.888889-113.777778 198.940445-113.777778C934.343111 412.444444 1024 525.596444 1024 647.253333 1024 753.294222 934.513778 867.555556 824.718222 867.555556z"  horiz-adv-x="1024" />

    
    <glyph glyph-name="calling_1" unicode="&#59190;" d="M746.808889 355.185778c-85.731556 0-137.415111-55.466667-173.795556-127.971556C461.368889 284.615111 389.688889 351.402667 341.333333 469.333333c81.265778 32.881778 113.777778 56.888889 113.777778 198.968889C455.111111 806.343111 341.959111 896 220.302222 896 114.261333 896 0 806.513778 0 696.746667c0-109.710222 0.369778-29.525333 0.455111-32.113778 3.043556-409.628444 308.110222-746.069333 700.387556-791.665778 15.018667-3.157333 124.046222-1.621333 124.046222 55.296s-68.238222 56.917333-111.473778 56.917333c-71.936 7.822222-128.910222 22.215111-168.533333 37.546667l0.085333-0.170667c-1.109333 0.483556-2.190222 0.910222-3.242667 1.422223a413.354667 413.354667 0 0 0-40.704 18.147555C338.147556 117.788444 238.051556 233.784889 170.666667 403.086222c-11.292444 24.263111-56.064 116.878222-57.059556 257.336889 0 0 0.170667 121.742222 113.948445 121.742222 72.846222 0 113.777778-56.945778 113.777777-112.270222 0-73.244444-3.669333-107.264-66.56-117.504l-0.142222-0.597333c-71.424 0-43.576889-96.881778-42.979555-96.881778 56.291556-151.694222 184.775111-266.609778 327.992888-335.616l-0.085333-1.422222 0.085333 0.170666 27.932445-11.946666a43.690667 43.690667 0 0 1 60.472889 14.791111c3.868444 6.627556 5.745778 13.795556 6.144 20.878222 15.672889 56.064 33.137778 99.584 93.326222 99.584 77.368889 0 105.813333-68.437333 105.813333-142.336 0-2.247111 0-85.390222 56.888889-85.390222 28.444444 0 56.888889 38.456889 56.888889 78.222222 0 123.562667-42.296889 263.338667-220.302222 263.338667zM625.777778 497.777778m-56.888889 0a56.888889 56.888889 0 1 1 113.777778 0 56.888889 56.888889 0 1 1-113.777778 0Z"  horiz-adv-x="1024" />

    
    <glyph glyph-name="calling_2" unicode="&#59191;" d="M746.808889 355.185778c-85.731556 0-137.415111-55.466667-173.795556-127.971556C461.368889 284.615111 389.688889 351.402667 341.333333 469.333333c81.265778 32.881778 113.777778 56.888889 113.777778 198.968889C455.111111 806.343111 341.959111 896 220.302222 896 114.261333 896 0 806.513778 0 696.746667c0-109.710222 0.369778-29.525333 0.455111-32.113778 3.043556-409.628444 308.110222-746.069333 700.387556-791.665778 15.018667-3.157333 124.046222-1.621333 124.046222 55.296s-68.238222 56.917333-111.473778 56.917333c-71.936 7.822222-128.910222 22.215111-168.533333 37.546667l0.085333-0.170667c-1.109333 0.483556-2.190222 0.910222-3.242667 1.422223a413.354667 413.354667 0 0 0-40.704 18.147555C338.147556 117.788444 238.051556 233.784889 170.666667 403.086222c-11.292444 24.263111-56.064 116.878222-57.059556 257.336889 0 0 0.170667 121.742222 113.948445 121.742222 72.846222 0 113.777778-56.945778 113.777777-112.270222 0-73.244444-3.669333-107.264-66.56-117.504l-0.142222-0.597333c-71.424 0-43.576889-96.881778-42.979555-96.881778 56.291556-151.694222 184.775111-266.609778 327.992888-335.616l-0.085333-1.422222 0.085333 0.170666 27.932445-11.946666a43.690667 43.690667 0 0 1 60.472889 14.791111c3.868444 6.627556 5.745778 13.795556 6.144 20.878222 15.672889 56.064 33.137778 99.584 93.326222 99.584 77.368889 0 105.813333-68.437333 105.813333-142.336 0-2.247111 0-85.390222 56.888889-85.390222 28.444444 0 56.888889 38.456889 56.888889 78.222222 0 123.562667-42.296889 263.338667-220.302222 263.338667zM625.777778 497.777778m-56.888889 0a56.888889 56.888889 0 1 1 113.777778 0 56.888889 56.888889 0 1 1-113.777778 0ZM654.222222 611.555556c47.047111 0 85.333333-38.286222 85.333334-85.333334a56.888889 56.888889 0 0 1 113.777777 0c0 109.767111-89.344 199.111111-199.111111 199.111111a56.888889 56.888889 0 0 1 0-113.777777zM682.666667 896a56.888889 56.888889 0 0 1 0-113.777778c125.468444 0 227.555556-102.087111 227.555555-227.555555a56.888889 56.888889 0 0 1 113.777778 0c0 188.216889-153.116444 341.333333-341.333333 341.333333z"  horiz-adv-x="1024" />

    
    <glyph glyph-name="unread_" unicode="&#59141;" d="M1024 99.555556V668.444444c0 62.748444-51.029333 113.777778-113.777778 113.777778H113.777778C51.029333 782.222222 0 731.192889 0 668.444444v-568.888888c0-0.938667 0.256-1.820444 0.284444-2.787556 0.113778-1.962667 0.312889-3.925333 0.597334-5.888C5.376 32.256 53.987556-14.222222 113.777778-14.222222h796.444444c59.790222 0 108.401778 46.478222 112.896 105.102222 0.312889 1.962667 0.512 3.925333 0.597334 5.888 0.028444 0.967111 0.284444 1.848889 0.284444 2.787556zM113.777778 565.048889l203.52-174.449778L113.777778 221.013333V565.048889z m398.222222-191.459556L167.992889 668.444444h688.014222L512 373.589333z m-107.093333-58.055111l70.058666-60.046222a56.775111 56.775111 0 0 1 74.069334-0.028444l70.058666 60.046222L878.250667 99.555556H145.749333l259.157334 215.978666z m301.795555 75.064889l203.548445 174.478222 0.028444-344.149333-203.576889 169.671111z"  horiz-adv-x="1024" />

    
    <glyph glyph-name="spread_1" unicode="&#59006;" d="M938.667 896H85.333C38.116 896 0 857.884 0 810.667v-853.334C0-89.884 38.116-128 85.333-128h853.334c47.217 0 85.333 38.116 85.333 85.333V810.667C1024 857.884 985.884 896 938.667 896zM607.289 148.48c19.342-13.084 24.462-39.538 11.093-59.164-8.249-11.947-21.618-18.49-35.27-18.49-8.25 0-16.499 2.276-23.894 7.396L160.996 348.73c-0.854 0.569-1.423 1.422-2.276 1.991-0.853 0.853-1.991 1.422-2.844 2.276-1.992 1.706-3.698 3.697-5.12 5.688l-1.138 1.138s0 0.285-0.285 0.285c-1.137 1.422-1.706 3.129-2.56 4.835-0.569 0.854-0.853 1.707-1.422 2.56-0.569 1.422-0.853 2.845-1.422 4.267-0.285 1.138-0.853 2.275-1.138 3.413-0.284 1.422-0.284 2.845-0.569 4.267 0 1.138-0.284 2.56-0.284 3.698 0 1.706 0.284 3.413 0.569 4.835 0 1.138 0 1.991 0.284 3.13 0.285 1.421 0.853 2.844 1.138 4.266 0.284 1.138 0.569 2.56 1.138 3.698 0.284 1.137 1.137 1.99 1.422 2.844 0.853 1.422 1.422 3.129 2.56 4.551 0 0 0 0.285 0.284 0.285 0.57 0.853 1.423 1.422 1.991 2.275 1.138 1.138 1.992 2.56 3.13 3.698 1.137 1.138 2.56 1.991 3.697 3.129 0.853 0.569 1.422 1.422 2.276 1.99l398.222 270.223c19.342 13.085 46.08 8.249 59.164-11.093 13.37-19.342 8.25-45.796-11.377-59.165l-345.6-234.097L607.289 148.48z m274.489-63.147c0-23.609-19.058-42.666-42.667-42.666s-42.667 19.057-42.667 42.666V682.667c0 23.609 19.058 42.666 42.667 42.666s42.667-19.057 42.667-42.666v-597.334z"  horiz-adv-x="1024" />

    
    <glyph glyph-name="packup_1" unicode="&#59014;" d="M938.667 896H85.333C38.116 896 0 857.884 0 810.667v-853.334C0-89.884 38.116-128 85.333-128h853.334c47.217 0 85.333 38.116 85.333 85.333V810.667C1024 857.884 985.6 896 938.667 896zM227.556 85.333c0-23.609-19.058-42.666-42.667-42.666s-42.667 19.057-42.667 42.666V682.667c0 23.609 19.058 42.666 42.667 42.666s42.667-19.057 42.667-42.666v-597.334zM881.493 378.88c0-1.138 0-2.276-0.284-3.129-0.285-1.422-0.853-2.844-1.138-4.267-0.284-1.137-0.569-2.56-1.138-3.697-0.569-1.138-1.137-1.991-1.706-3.13-0.854-1.421-1.423-2.844-2.276-4.266 0-0.284-0.284-0.284-0.284-0.569-0.285-0.569-0.854-0.853-1.138-1.138-1.422-1.99-3.129-3.982-5.12-5.688-0.853-0.854-1.707-1.423-2.56-2.276-0.853-0.569-1.422-1.422-2.276-1.991L465.351 78.222c-7.395-5.12-15.644-7.395-23.893-7.395-13.654 0-27.022 6.542-35.271 18.489a42.382 42.382 0 0 0 11.377 59.164l346.454 235.236L416.71 618.95c-19.342 13.085-24.462 39.538-11.378 59.165 13.37 19.342 39.823 24.462 59.165 11.093L862.72 418.987c0.853-0.57 1.422-1.423 2.276-1.991 1.422-1.138 2.56-1.992 3.697-3.13 1.138-1.137 2.276-2.56 3.414-3.982 0.569-0.853 1.422-1.422 1.706-2.275 0 0 0-0.285 0.285-0.285 1.138-1.706 1.99-3.413 2.844-5.12 0.285-0.853 0.854-1.706 1.422-2.56 0.57-1.422 0.854-3.128 1.423-4.55 0.284-1.138 0.853-2.276 0.853-3.414 0.284-1.422 0.284-2.844 0.569-4.267 0-1.137 0.284-2.56 0.284-3.697 0.285-1.423 0-3.13 0-4.836z"  horiz-adv-x="1024" />

    
    <glyph glyph-name="backward2" unicode="&#59177;" d="M313.002832-128c15.217765 0 30.378641 6.058662 41.614188 18.005318l397.937446 454.883177a56.775064 56.775064 0 0 1 0 77.852379L354.61702 878.022273A57.059508 57.059508 0 0 1 274.033976 880.610715a56.775064 56.775064 0 0 1-2.616887-80.440822L625.749239 383.999573 271.417089-32.170747a56.803508 56.803508 0 0 1 2.616887-80.440821 56.888841 56.888841 0 0 1 38.968856-15.388432z"  horiz-adv-x="1024" />

    
    <glyph glyph-name="forward2" unicode="&#59178;" d="M710.968281-128a56.974048 56.974048 0 0 0-41.614095 18.005278L271.417624 344.887444a56.831826 56.831826 0 0 0 0 77.852207L669.354186 878.020037a57.087826 57.087826 0 0 0 80.611309 2.588437c23.011485-21.503934 24.14926-57.486047 2.616881-80.412199L398.22257 383.998436l354.359806-416.169395a56.803382 56.803382 0 0 0-2.616881-80.440644 57.002492 57.002492 0 0 0-38.997214-15.388397z"  horiz-adv-x="1024" />

    
    <glyph glyph-name="packup1" unicode="&#59179;" d="M1024 185.002667c0 15.217778-6.058667 30.378667-18.005333 41.614222l-453.12 397.937778a56.746667 56.746667 0 0 1-77.880889 0L14.791111 226.616889c-22.926222-21.504-15.473778-67.669333-2.588444-80.554667 22.272-22.272 57.486222-24.177778 80.412444-2.616889L512 497.777778l416.170667-354.332445A56.917333 56.917333 0 1 1 1024 185.002667z"  horiz-adv-x="1041" />

    
    <glyph glyph-name="spread1" unicode="&#59180;" d="M1024 582.997333c0-15.217778-6.058667-30.378667-18.005333-41.614222l-453.12-397.937778a56.746667 56.746667 0 0 0-77.880889 0L14.791111 541.383111c-22.926222 21.532444-15.473778 67.669333-2.588444 80.583111 22.272 22.272 57.486222 24.177778 80.412444 2.616889L512 270.222222 928.170667 624.583111a56.775111 56.775111 0 0 0 80.440889-2.616889c10.268444-11.008 15.388444-25.002667 15.388444-38.968889z"  horiz-adv-x="1024" />

    
    <glyph glyph-name="restart" unicode="&#59181;" d="M250.311111 696.888889C221.866667 696.888889 199.111111 671.288889 199.111111 640c0-31.544889 22.755556-56.888889 51.2-56.888889h466.460445c28.444444 0 51.228444 25.344 51.228444 56.888889 0 31.288889-22.784 56.888889-51.228444 56.888889H250.311111zM341.333333-14.222222H170.666667c-27.619556 0-56.888889 28.444444-56.888889 56.888889V725.333333c0 28.444444 28.444444 56.888889 56.888889 56.888889h625.777777c28.444444 0 56.888889-28.444444 56.888889-56.888889v-113.777777a56.888889 56.888889 0 0 1 56.888889-56.888889c31.288889 0 56.888889 25.6 56.888889 56.888889V782.222222c0 56.888889-56.888889 113.777778-113.777778 113.777778H113.777778C56.888889 896 0 839.111111 0 782.222222v-796.444444c0-56.888889 57.713778-113.777778 113.777778-113.777778h227.555555a56.888889 56.888889 0 0 1 0 113.777778zM512 440.888889a56.888889 56.888889 0 0 1-56.888889 56.888889H256c-31.544889 0-56.888889-25.344-56.888889-56.888889s25.344-56.888889 56.888889-56.888889h199.111111a56.888889 56.888889 0 0 1 56.888889 56.888889zM512 241.777778a56.888889 56.888889 0 0 1-56.888889 56.888889H256c-31.544889 0-56.888889-25.344-56.888889-56.888889s25.344-56.888889 56.888889-56.888889h199.111111a56.888889 56.888889 0 0 1 56.888889 56.888889zM686.222222-126.748444c-42.780444 0-88.888889 32.654222-88.888889 104.391111V384c0 71.68 45.994667 104.334222 88.775111 104.334222 23.438222 0 47.786667-9.415111 70.343112-27.192889l218.282666-183.381333c31.317333-24.718222 49.265778-60.273778 49.265778-97.536-0.056889-37.262222-18.062222-72.789333-49.436444-97.450667l-218.112-182.471111c-22.499556-17.692444-46.791111-27.050667-70.229334-27.050666zM711.111111 351.971556v-342.613334l199.111111 162.872889c4.124444 3.242667 5.944889 6.4 5.944889 8.078222s-1.820444 4.864-5.944889 8.106667l-199.111111 163.555556z"  horiz-adv-x="1024" />

    
    </font>
</defs>
</svg>
